<?xml version="1.0" encoding="UTF-8" standalone="no"?>
<!-- Created with Inkscape (http://www.inkscape.org/) -->

<svg
   width="210mm"
   height="297mm"
   viewBox="0 0 210 297"
   version="1.1"
   id="svg1"
   xml:space="preserve"
   inkscape:version="1.4.3 (fcd0343856, 2026-01-01)"
   sodipodi:docname="logo_und_qr.svg"
   xmlns:inkscape="http://www.inkscape.org/namespaces/inkscape"
   xmlns:sodipodi="http://sodipodi.sourceforge.net/DTD/sodipodi-0.dtd"
   xmlns:xlink="http://www.w3.org/1999/xlink"
   xmlns="http://www.w3.org/2000/svg"
   xmlns:svg="http://www.w3.org/2000/svg"><sodipodi:namedview
     id="namedview1"
     pagecolor="#ffffff"
     bordercolor="#000000"
     borderopacity="0.25"
     inkscape:showpageshadow="2"
     inkscape:pageopacity="0.0"
     inkscape:pagecheckerboard="0"
     inkscape:deskcolor="#d1d1d1"
     inkscape:document-units="mm"
     inkscape:zoom="1.0324986"
     inkscape:cx="396.61071"
     inkscape:cy="561.25984"
     inkscape:window-width="2560"
     inkscape:window-height="1368"
     inkscape:window-x="2560"
     inkscape:window-y="0"
     inkscape:window-maximized="1"
     inkscape:current-layer="g4" /><defs
     id="defs1"><rect
       x="508.47527"
       y="317.67598"
       width="201.45306"
       height="29.05573"
       id="rect4" /><inkscape:path-effect
       effect="spiro"
       id="path-effect12"
       is_visible="true"
       lpeversion="1" /><inkscape:path-effect
       effect="spiro"
       id="path-effect11"
       is_visible="true"
       lpeversion="1" /><inkscape:path-effect
       effect="spiro"
       id="path-effect8"
       is_visible="true"
       lpeversion="1" /><inkscape:path-effect
       effect="spiro"
       id="path-effect16"
       is_visible="true"
       lpeversion="1" /><inkscape:path-effect
       effect="spiro"
       id="path-effect15"
       is_visible="true"
       lpeversion="1" /><inkscape:path-effect
       effect="spiro"
       id="path-effect14"
       is_visible="true"
       lpeversion="1" /><inkscape:path-effect
       effect="spiro"
       id="path-effect13"
       is_visible="true"
       lpeversion="1" /><linearGradient
       id="linearGradient2"
       inkscape:collect="always"><stop
         style="stop-color:#000000;stop-opacity:1;"
         offset="0"
         id="stop2" /><stop
         style="stop-color:#000000;stop-opacity:0;"
         offset="1"
         id="stop3" /></linearGradient><rect
       x="279.56082"
       y="336.90665"
       width="154.09039"
       height="50.698341"
       id="rect2" /><linearGradient
       inkscape:collect="always"
       xlink:href="#linearGradient2"
       id="linearGradient3"
       x1="275.96732"
       y1="358.37045"
       x2="379.21225"
       y2="358.37045"
       gradientUnits="userSpaceOnUse" /><inkscape:path-effect
       effect="spiro"
       id="path-effect16-7"
       is_visible="true"
       lpeversion="1" /><inkscape:path-effect
       effect="spiro"
       id="path-effect16-1"
       is_visible="true"
       lpeversion="1" /><inkscape:path-effect
       effect="spiro"
       id="path-effect12-5"
       is_visible="true"
       lpeversion="1" /><inkscape:path-effect
       effect="spiro"
       id="path-effect12-7"
       is_visible="true"
       lpeversion="1" /></defs><g
     inkscape:label="Layer 1"
     inkscape:groupmode="layer"
     id="layer1"><g
       id="g2"
       inkscape:label="mfl_logo"
       inkscape:export-filename="mfl_logo.png"
       inkscape:export-xdpi="265.46176"
       inkscape:export-ydpi="265.46176"><rect
         style="fill:#4199b9;fill-opacity:1;stroke-width:0.492291;stroke-linecap:round"
         id="background"
         width="76.54586"
         height="76.54586"
         x="31.175415"
         y="21.175039"
         rx="11.894656"
         ry="11.894656" /><path
         id="rect3-6"
         style="opacity:0.6;fill:#ffffff;fill-opacity:1;stroke:#ffffff;stroke-width:1.0483;stroke-linecap:round;stroke-dasharray:none;stroke-opacity:1"
         d="m 43.741104,77.481417 c -3.432123,3.64e-4 -4.322716,-1.517341 -4.322716,-3.400856 0,-1.883513 0.890594,-3.399105 4.322716,-3.398829 l 56.322996,0.0046 c 0,0 -1.273746,1.551104 -1.206905,3.310863 0.06683,1.75976 1.278825,3.478303 1.278825,3.478303 z"
         sodipodi:nodetypes="sssczcs"
         inkscape:export-filename="../../assets/images/mfl_logo_slim.png"
         inkscape:export-xdpi="102.09732"
         inkscape:export-ydpi="102.09732" /><path
         id="rect3"
         style="fill:none;stroke:#ffffff;stroke-width:1.47687;stroke-linecap:round;stroke-dasharray:none"
         d="m 101.95308,79.778757 -45.861771,7.55e-4 m -10.254728,8.9e-5 -2.903929,4.6e-5 c -3.641043,5.9e-5 -6.201907,-2.583143 -6.201907,-5.790704 0,-3.207559 2.560864,-5.788874 6.201907,-5.788928 l 59.020428,-8.9e-4"
         sodipodi:nodetypes="cccsssc" /><g
         id="g7"
         transform="matrix(1.3737901,-0.3350626,0.3350626,1.3737901,-86.47759,-25.017656)"><circle
           style="fill:none;fill-opacity:1;stroke:#ffffff;stroke-width:1.20397;stroke-linecap:round;stroke-dasharray:none;stroke-opacity:1"
           id="path4"
           r="1.0295721"
           cy="90.21505"
           cx="103.9253" /><path
           style="fill:none;fill-opacity:1;stroke:#ffffff;stroke-width:1.204;stroke-linecap:round;stroke-dasharray:none;stroke-opacity:1"
           d="m 75.344543,84.045287 c 0,0 7.310695,1.002815 23.077468,2.456925 11.400379,1.051414 14.146829,-0.246713 14.003249,-3.927473 -0.14357,-3.68076 -2.68476,-0.431682 -7.46126,-5.039913 -0.76498,-0.738029 -1.57931,-1.563926 -2.49702,-1.750358 -4.812473,-0.977647 -6.843636,3.832571 -10.671305,4.778113 -3.252567,0.803476 -9.23348,0.588322 -11.412037,0.574964 -0.603561,-0.0037 -0.500009,-0.01988 -0.500009,-0.01988 0,0 -0.864684,-4.545399 -2.352954,-6.207851 -0.519115,-0.579871 -2.123216,-0.489587 -2.435691,-0.498096 0,0 -0.783815,7.588415 -0.704618,8.516484 0.0792,0.928069 0.954177,1.117089 0.954177,1.117089 z"
           id="path5"
           sodipodi:nodetypes="cszsssscsczcc" /><path
           style="fill:none;fill-opacity:1;stroke:#ffffff;stroke-width:0.963173;stroke-linecap:round;stroke-dasharray:none;stroke-opacity:1"
           d="m 102.6042,87.060419 0.79685,1.751468"
           id="path6"
           sodipodi:nodetypes="cc" /><path
           style="fill:none;fill-opacity:1;stroke:#ffffff;stroke-width:0.963173;stroke-linecap:round;stroke-dasharray:none;stroke-opacity:1"
           d="m 113.84047,78.47119 v 8.647919"
           id="path7" /></g><g
         id="g8"
         transform="matrix(1.2283359,-0.07670805,0.07670805,1.2283359,-51.352799,-18.66144)"><ellipse
           style="fill:#ffffff;fill-opacity:1;stroke:#ffffff;stroke-width:0.411715;stroke-linecap:round;stroke-dasharray:none;stroke-opacity:1"
           id="path14"
           cx="89.935165"
           cy="58.850075"
           rx="0.24103592"
           ry="0.24321105"
           transform="matrix(0.99857318,-0.05340033,0.10639983,0.99432343,0,0)" /><path
           style="fill:none;stroke:#ffffff;stroke-width:0.3;stroke-linecap:round;stroke-dasharray:none;stroke-opacity:1"
           d="M 96.753694,59.83525 C 96.357146,58.641454 95.608079,57.567156 94.625005,56.782322 94.104421,56.366716 93.52,56.031223 92.898589,55.791256"
           id="path8"
           inkscape:path-effect="#path-effect8"
           inkscape:original-d="M 96.753694,59.83525 C 96.052501,58.825978 95.326198,57.791594 94.625005,56.782322 93.923811,55.773051 94.410837,56.128753 92.898589,55.791256"
           transform="rotate(3.1421753,131.55783,115.09801)"
           sodipodi:nodetypes="csc" /></g><path
         style="fill:#ffffff;fill-opacity:1;stroke:none;stroke-width:0.175012;stroke-linecap:round;stroke-dasharray:none;stroke-opacity:1"
         d="m 55.334667,72.279278 c 0,0 -0.910635,0.131358 -0.910635,1.085249 v -3.2e-5 c 0,1.614507 0.135674,10.36094 0.135674,10.36094 l -3.663323,-3.010489 -3.522351,3.012138 c 0,0 0.0071,-9.996669 0.0071,-10.510254 0,-0.806534 0.681117,-0.93879 0.681117,-0.93879"
         id="path10"
         sodipodi:nodetypes="csscccsc" /></g><g
       id="g4"
       inkscape:label="qr_code"
       inkscape:export-filename="mfl_qr_code.png"
       inkscape:export-xdpi="265.46176"
       inkscape:export-ydpi="265.46176"><rect
         style="fill:#ffffff;fill-opacity:1;stroke-width:0.492291;stroke-linecap:round"
         id="background-9"
         width="76.54586"
         height="76.54586"
         x="121.49562"
         y="21.019226"
         rx="11.894656"
         ry="11.894656"
         inkscape:export-filename="mfl_qr_code.png"
         inkscape:export-xdpi="265.46176"
         inkscape:export-ydpi="265.46176" /><g
         style="shape-rendering:crispEdges"
         id="g1"
         transform="matrix(1.5968083,0,0,1.5968083,131.74716,-66.995593)"><path
           stroke="#000000"
           d="m 1.3674113,59.930617 h 7 m 2.9999997,0 h 1 m 1,0 h 2 m 2,0 h 2 m 1,0 h 2 m 2,0 h 1 m 2,0 h 7 m -32.9999997,1 h 1 m 5,0 h 1 m 1.9999997,0 h 2 m 2,0 h 3 m 1,0 h 1 m 2,0 h 1 m 1,0 h 1 m 3,0 h 1 m 5,0 h 1 m -32.9999997,1 h 1 m 1,0 h 3 m 1,0 h 1 m 1,0 h 0.9999997 m 1,0 h 1 m 1,0 h 2 m 1,0 h 8 m 3,0 h 1 m 1,0 h 3 m 1,0 h 1 m -32.9999997,1 h 1 m 1,0 h 3 m 1,0 h 1 m 1,0 h 3.9999997 m 2,0 h 3 m 2,0 h 2 m 1,0 h 1 m 1,0 h 1 m 1,0 h 1 m 1,0 h 3 m 1,0 h 1 m -32.9999997,1 h 1 m 1,0 h 3 m 1,0 h 1 m 1,0 h 0.9999997 m 6,0 h 1 m 2,0 h 1 m 2,0 h 1 m 1,0 h 1 m 2,0 h 1 m 1,0 h 3 m 1,0 h 1 m -32.9999997,1 h 1 m 5,0 h 1 m 1,0 h 0.9999997 m 5,0 h 3 m 3,0 h 1 m 5,0 h 1 m 5,0 h 1 m -32.9999997,1 h 7 m 1,0 h 0.9999997 m 1,0 h 1 m 1,0 h 1 m 1,0 h 1 m 1,0 h 1 m 1,0 h 1 m 1,0 h 1 m 1,0 h 1 m 1,0 h 1 m 1,0 h 7 m -24.9999997,1 h 0.9999997 m 5,0 h 2 m 5,0 h 1 m 1,0 h 1 m -23.9999997,1 h 1 m 1,0 h 5 m 3.9999997,0 h 5 m 1,0 h 1 m 5,0 h 1 m 2,0 h 5 m -29.9999997,1 h 1 m 1,0 h 3 m 2.9999997,0 h 2 m 5,0 h 1 m 1,0 h 3 m 2,0 h 1 m 2,0 h 2 m 1,0 h 2 m 1,0 h 1 m -32.9999997,1 h 1 m 1,0 h 3 m 1,0 h 1 m 1.9999997,0 h 2 m 1,0 h 1 m 2,0 h 2 m 1,0 h 1 m 1,0 h 1 m 3,0 h 3 m 1,0 h 1 m 1,0 h 2 m -31.9999997,1 h 1 m 6,0 h 1.9999997 m 1,0 h 1 m 3,0 h 1 m 1,0 h 1 m 2,0 h 1 m 1,0 h 2 m 1,0 h 2 m 2,0 h 3 m 1,0 h 1 m -32.9999997,1 h 3 m 3,0 h 2 m 0.9999997,0 h 1 m 8,0 h 1 m 2,0 h 1 m 1,0 h 3 m 1,0 h 3 m 1,0 h 1 m -30.9999997,1 h 1 m 2,0 h 2 m 2.9999997,0 h 1 m 1,0 h 7 m 2,0 h 1 m 2,0 h 1 m 2,0 h 2 m 1,0 h 1 m 1,0 h 2 m -32.9999997,1 h 3 m 3,0 h 1 m 1,0 h 2.9999997 m 1,0 h 1 m 1,0 h 1 m 4,0 h 1 m 2,0 h 1 m 1,0 h 4 m 2,0 h 2 m -30.9999997,1 h 2 m 1,0 h 2 m 2,0 h 2.9999997 m 2,0 h 2 m 1,0 h 1 m 2,0 h 3 m 1,0 h 4 m 2,0 h 2 m -28.9999997,1 h 5 m 1,0 h 0.9999997 m 1,0 h 1 m 2,0 h 1 m 3,0 h 1 m 1,0 h 2 m 1,0 h 1 m 1,0 h 2 m 1,0 h 2 m 3,0 h 1 m -32.9999997,1 h 3 m 1,0 h 2 m 4.9999997,0 h 1 m 1,0 h 1 m 2,0 h 5 m 2,0 h 1 m 2,0 h 2 m 1,0 h 2 m 1,0 h 1 m -31.9999997,1 h 3 m 2,0 h 2 m 2.9999997,0 h 1 m 2,0 h 4 m 2,0 h 1 m 1,0 h 1 m 1,0 h 5 m 1,0 h 2 m -27.9999997,1 h 1 m 3,0 h 1.9999997 m 3,0 h 1 m 1,0 h 6 m 6,0 h 5 m -30.9999997,1 h 2 m 3,0 h 2 m 0.9999997,0 h 6 m 1,0 h 1 m 2,0 h 4 m 1,0 h 2 m 2,0 h 2 m 1,0 h 2 m -32.9999997,1 h 2 m 2,0 h 2 m 1,0 h 2.9999997 m 1,0 h 1 m 3,0 h 1 m 2,0 h 1 m 2,0 h 1 m 1,0 h 1 m 2,0 h 1 m 5,0 h 1 m -32.9999997,1 h 1 m 1,0 h 1 m 3,0 h 1 m 1.9999997,0 h 3 m 1,0 h 4 m 1,0 h 1 m 1,0 h 1 m 4,0 h 1 m 1,0 h 1 m 1,0 h 3 m -31.9999997,1 h 1 m 3,0 h 2 m 1,0 h 1 m 0.9999997,0 h 2 m 1,0 h 1 m 1,0 h 2 m 5,0 h 3 m 1,0 h 6 m 1,0 h 1 m -32.9999997,1 h 1 m 3,0 h 3 m 1,0 h 2.9999997 m 1,0 h 4 m 1,0 h 1 m 4,0 h 1 m 1,0 h 5 m 2,0 h 2 m -24.9999997,1 h 0.9999997 m 1,0 h 2 m 1,0 h 1 m 2,0 h 1 m 2,0 h 1 m 1,0 h 1 m 1,0 h 2 m 3,0 h 1 m 1,0 h 1 m 1,0 h 1 m -32.9999997,1 h 7 m 1.9999997,0 h 1 m 2,0 h 1 m 1,0 h 3 m 1,0 h 1 m 1,0 h 2 m 1,0 h 2 m 1,0 h 1 m 1,0 h 1 m 1,0 h 1 m -30.9999997,1 h 1 m 5,0 h 1 m 1,0 h 3.9999997 m 1,0 h 2 m 1,0 h 1 m 3,0 h 5 m 3,0 h 3 m -30.9999997,1 h 1 m 1,0 h 3 m 1,0 h 1 m 1,0 h 0.9999997 m 1,0 h 1 m 1,0 h 3 m 3,0 h 2 m 1,0 h 1 m 2,0 h 6 m 1,0 h 2 m -32.9999997,1 h 1 m 1,0 h 3 m 1,0 h 1 m 1,0 h 2.9999997 m 2,0 h 1 m 1,0 h 2 m 3,0 h 1 m 1,0 h 4 m 2,0 h 3 m 1,0 h 1 m -32.9999997,1 h 1 m 1,0 h 3 m 1,0 h 1 m 1,0 h 4.9999997 m 4,0 h 3 m 2,0 h 1 m 3,0 h 2 m 1,0 h 1 m -29.9999997,1 h 1 m 5,0 h 1 m 1.9999997,0 h 1 m 1,0 h 4 m 1,0 h 1 m 2,0 h 4 m 2,0 h 2 m 1,0 h 3 m -30.9999997,1 h 7 m 1,0 h 0.9999997 m 1,0 h 2 m 1,0 h 2 m 2,0 h 3 m 2,0 h 6 m 3,0 h 1"
           id="path2" /><text
           xml:space="preserve"
           transform="matrix(1.4203725,0,0,1.4203725,-718.6952,-358.41891)"
           id="text2"
           style="font-size:4.69539px;writing-mode:lr-tb;direction:ltr;white-space:pre;shape-inside:url(#rect4);fill:none;fill-opacity:1;stroke:#b09f81;stroke-width:1.88976;paint-order:fill markers stroke"><tspan
             x="508.47461"
             y="321.8301"
             id="tspan2"><tspan
               style="font-family:'Soft Core';-inkscape-font-specification:'Soft Core';fill:#000000;stroke:none"
               id="tspan1">mfl@github</tspan></tspan></text></g></g></g></svg>
