<?xml version="1.0" standalone="no"?>
<mlt LC_NUMERIC="C" version="7.36.1" title="Shotcut version 26.1.6" producer="main_bin">
  <profile description="HD 1080p 25 fps" width="1920" height="1080" progressive="1" sample_aspect_num="1" sample_aspect_den="1" display_aspect_num="16" display_aspect_den="9" frame_rate_num="30" frame_rate_den="1" colorspace="709"/>
  <chain id="chain0" out="00:00:02.467">
    <property name="length">00:00:02.500</property>
    <property name="eof">pause</property>
    <property name="resource">mfl_terminal_pilotstatus_warnungen - Konvertiert.mp4</property>
    <property name="mlt_service">avformat-novalidate</property>
    <property name="meta.media.nb_streams">1</property>
    <property name="meta.media.0.stream.type">video</property>
    <property name="meta.media.0.stream.frame_rate">30</property>
    <property name="meta.media.0.stream.sample_aspect_ratio">1</property>
    <property name="meta.media.0.codec.width">802</property>
    <property name="meta.media.0.codec.height">490</property>
    <property name="meta.media.0.codec.rotate">0</property>
    <property name="meta.media.0.codec.pix_fmt">yuv420p</property>
    <property name="meta.media.0.codec.sample_aspect_ratio">1</property>
    <property name="meta.media.0.codec.colorspace">709</property>
    <property name="meta.media.0.codec.color_trc">1</property>
    <property name="meta.media.0.codec.name">h264</property>
    <property name="meta.media.0.codec.long_name">H.264 / AVC / MPEG-4 AVC / MPEG-4 part 10</property>
    <property name="meta.media.0.codec.bit_rate">5326160</property>
    <property name="meta.attr.0.stream.handler_name.markup">VideoHandler</property>
    <property name="meta.attr.0.stream.vendor_id.markup">[0][0][0][0]</property>
    <property name="meta.attr.0.stream.encoder.markup">Lavc62.11.100 libx264</property>
    <property name="meta.attr.major_brand.markup">isom</property>
    <property name="meta.attr.minor_version.markup">512</property>
    <property name="meta.attr.compatible_brands.markup">isomiso2avc1mp41</property>
    <property name="meta.attr.encoder.markup">Lavf62.3.100</property>
    <property name="seekable">1</property>
    <property name="meta.media.sample_aspect_num">1</property>
    <property name="meta.media.sample_aspect_den">1</property>
    <property name="format">3</property>
    <property name="audio_index">-1</property>
    <property name="video_index">0</property>
    <property name="creation_time">2026-01-16T17:23:52</property>
    <property name="vstream">0</property>
    <property name="meta.media.frame_rate_num">30</property>
    <property name="meta.media.frame_rate_den">1</property>
    <property name="meta.media.colorspace">709</property>
    <property name="meta.media.color_trc">1</property>
    <property name="meta.media.has_b_frames">0</property>
    <property name="meta.media.width">802</property>
    <property name="meta.media.height">490</property>
    <property name="meta.media.aspect_ratio">1</property>
    <property name="meta.media.color_range">mpeg</property>
    <property name="shotcut:hash">ba107d259a101618128cf57f462764e6</property>
    <property name="xml">was here</property>
  </chain>
  <chain id="chain1" out="00:00:06.600">
    <property name="length">00:00:06.633</property>
    <property name="eof">pause</property>
    <property name="resource">mfl_terminal_checkinsequence - Konvertiert.mp4</property>
    <property name="mlt_service">avformat-novalidate</property>
    <property name="meta.media.nb_streams">1</property>
    <property name="meta.media.0.stream.type">video</property>
    <property name="meta.media.0.stream.frame_rate">30</property>
    <property name="meta.media.0.stream.sample_aspect_ratio">1</property>
    <property name="meta.media.0.codec.width">802</property>
    <property name="meta.media.0.codec.height">490</property>
    <property name="meta.media.0.codec.rotate">0</property>
    <property name="meta.media.0.codec.pix_fmt">yuv420p</property>
    <property name="meta.media.0.codec.sample_aspect_ratio">1</property>
    <property name="meta.media.0.codec.colorspace">709</property>
    <property name="meta.media.0.codec.color_trc">1</property>
    <property name="meta.media.0.codec.name">h264</property>
    <property name="meta.media.0.codec.long_name">H.264 / AVC / MPEG-4 AVC / MPEG-4 part 10</property>
    <property name="meta.media.0.codec.bit_rate">5175600</property>
    <property name="meta.attr.0.stream.handler_name.markup">VideoHandler</property>
    <property name="meta.attr.0.stream.vendor_id.markup">[0][0][0][0]</property>
    <property name="meta.attr.0.stream.encoder.markup">Lavc62.11.100 libx264</property>
    <property name="meta.attr.major_brand.markup">isom</property>
    <property name="meta.attr.minor_version.markup">512</property>
    <property name="meta.attr.compatible_brands.markup">isomiso2avc1mp41</property>
    <property name="meta.attr.encoder.markup">Lavf62.3.100</property>
    <property name="seekable">1</property>
    <property name="meta.media.sample_aspect_num">1</property>
    <property name="meta.media.sample_aspect_den">1</property>
    <property name="format">3</property>
    <property name="audio_index">-1</property>
    <property name="video_index">0</property>
    <property name="creation_time">2026-01-16T21:42:18</property>
    <property name="vstream">0</property>
    <property name="meta.media.frame_rate_num">30</property>
    <property name="meta.media.frame_rate_den">1</property>
    <property name="meta.media.colorspace">709</property>
    <property name="meta.media.color_trc">1</property>
    <property name="meta.media.has_b_frames">0</property>
    <property name="meta.media.width">802</property>
    <property name="meta.media.height">490</property>
    <property name="meta.media.aspect_ratio">1</property>
    <property name="meta.media.color_range">mpeg</property>
    <property name="shotcut:hash">76c0c8aaab723ce4398601392a681001</property>
    <property name="xml">was here</property>
  </chain>
  <chain id="chain2" out="00:00:03.167">
    <property name="length">00:00:03.200</property>
    <property name="eof">pause</property>
    <property name="resource">mfl_terminal_checkinsequence - Konvertiert.mp4</property>
    <property name="mlt_service">avformat-novalidate</property>
    <property name="meta.media.nb_streams">1</property>
    <property name="meta.media.0.stream.type">video</property>
    <property name="meta.media.0.stream.frame_rate">30</property>
    <property name="meta.media.0.stream.sample_aspect_ratio">1</property>
    <property name="meta.media.0.codec.width">802</property>
    <property name="meta.media.0.codec.height">490</property>
    <property name="meta.media.0.codec.rotate">0</property>
    <property name="meta.media.0.codec.pix_fmt">yuv420p</property>
    <property name="meta.media.0.codec.sample_aspect_ratio">1</property>
    <property name="meta.media.0.codec.colorspace">709</property>
    <property name="meta.media.0.codec.color_trc">1</property>
    <property name="meta.media.0.codec.name">h264</property>
    <property name="meta.media.0.codec.long_name">H.264 / AVC / MPEG-4 AVC / MPEG-4 part 10</property>
    <property name="meta.media.0.codec.bit_rate">5308432</property>
    <property name="meta.attr.0.stream.handler_name.markup">VideoHandler</property>
    <property name="meta.attr.0.stream.vendor_id.markup">[0][0][0][0]</property>
    <property name="meta.attr.0.stream.encoder.markup">Lavc62.11.100 libx264</property>
    <property name="meta.attr.major_brand.markup">isom</property>
    <property name="meta.attr.minor_version.markup">512</property>
    <property name="meta.attr.compatible_brands.markup">isomiso2avc1mp41</property>
    <property name="meta.attr.encoder.markup">Lavf62.3.100</property>
    <property name="seekable">1</property>
    <property name="meta.media.sample_aspect_num">1</property>
    <property name="meta.media.sample_aspect_den">1</property>
    <property name="format">3</property>
    <property name="audio_index">-1</property>
    <property name="video_index">0</property>
    <property name="creation_time">2026-01-16T21:58:33</property>
    <property name="vstream">0</property>
    <property name="meta.media.frame_rate_num">30</property>
    <property name="meta.media.frame_rate_den">1</property>
    <property name="meta.media.colorspace">709</property>
    <property name="meta.media.color_trc">1</property>
    <property name="meta.media.has_b_frames">0</property>
    <property name="meta.media.width">802</property>
    <property name="meta.media.height">490</property>
    <property name="meta.media.aspect_ratio">1</property>
    <property name="meta.media.color_range">mpeg</property>
    <property name="shotcut:hash">7cca2f76c1192f432609ae325c003a0c</property>
    <property name="xml">was here</property>
  </chain>
  <chain id="chain3" out="00:00:10.800">
    <property name="length">00:00:10.833</property>
    <property name="eof">pause</property>
    <property name="resource">mfl_terminal_protokoll_commit - Konvertiert.mp4</property>
    <property name="mlt_service">avformat-novalidate</property>
    <property name="meta.media.nb_streams">1</property>
    <property name="meta.media.0.stream.type">video</property>
    <property name="meta.media.0.stream.frame_rate">30</property>
    <property name="meta.media.0.stream.sample_aspect_ratio">1</property>
    <property name="meta.media.0.codec.width">802</property>
    <property name="meta.media.0.codec.height">490</property>
    <property name="meta.media.0.codec.rotate">0</property>
    <property name="meta.media.0.codec.pix_fmt">yuv420p</property>
    <property name="meta.media.0.codec.sample_aspect_ratio">1</property>
    <property name="meta.media.0.codec.colorspace">709</property>
    <property name="meta.media.0.codec.color_trc">1</property>
    <property name="meta.media.0.codec.name">h264</property>
    <property name="meta.media.0.codec.long_name">H.264 / AVC / MPEG-4 AVC / MPEG-4 part 10</property>
    <property name="meta.media.0.codec.bit_rate">3666111</property>
    <property name="meta.attr.0.stream.handler_name.markup">VideoHandler</property>
    <property name="meta.attr.0.stream.vendor_id.markup">[0][0][0][0]</property>
    <property name="meta.attr.0.stream.encoder.markup">Lavc62.11.100 libx264</property>
    <property name="meta.attr.major_brand.markup">isom</property>
    <property name="meta.attr.minor_version.markup">512</property>
    <property name="meta.attr.compatible_brands.markup">isomiso2avc1mp41</property>
    <property name="meta.attr.encoder.markup">Lavf62.3.100</property>
    <property name="seekable">1</property>
    <property name="meta.media.sample_aspect_num">1</property>
    <property name="meta.media.sample_aspect_den">1</property>
    <property name="format">3</property>
    <property name="audio_index">-1</property>
    <property name="video_index">0</property>
    <property name="creation_time">2026-01-16T23:25:33</property>
    <property name="vstream">0</property>
    <property name="meta.media.frame_rate_num">30</property>
    <property name="meta.media.frame_rate_den">1</property>
    <property name="meta.media.colorspace">709</property>
    <property name="meta.media.color_trc">1</property>
    <property name="meta.media.has_b_frames">0</property>
    <property name="meta.media.width">802</property>
    <property name="meta.media.height">490</property>
    <property name="meta.media.aspect_ratio">1</property>
    <property name="meta.media.color_range">mpeg</property>
    <property name="shotcut:hash">a3b6626094d4221db3dd9bc62ba8387f</property>
    <property name="xml">was here</property>
  </chain>
  <playlist id="main_bin">
    <property name="xml_retain">1</property>
    <entry producer="chain0" in="00:00:00.000" out="00:00:02.467"/>
    <entry producer="chain1" in="00:00:00.000" out="00:00:06.600"/>
    <entry producer="chain2" in="00:00:00.000" out="00:00:03.167"/>
    <entry producer="chain3" in="00:00:00.000" out="00:00:10.800"/>
  </playlist>
  <producer id="black" in="00:00:00.000" out="00:03:08.800">
    <property name="length">00:03:08.833</property>
    <property name="eof">pause</property>
    <property name="resource">0</property>
    <property name="aspect_ratio">1</property>
    <property name="mlt_service">color</property>
    <property name="mlt_image_format">rgba</property>
    <property name="set.test_audio">0</property>
  </producer>
  <playlist id="background">
    <entry producer="black" in="00:00:00.000" out="00:03:08.800"/>
  </playlist>
  <producer id="producer0" in="00:00:00.000" out="03:59:59.967">
    <property name="length">04:00:00.000</property>
    <property name="eof">pause</property>
    <property name="resource">aircraft-1813731.jpg</property>
    <property name="ttl">1</property>
    <property name="aspect_ratio">1</property>
    <property name="meta.media.progressive">1</property>
    <property name="seekable">1</property>
    <property name="format">1</property>
    <property name="meta.media.width">3454</property>
    <property name="meta.media.height">2366</property>
    <property name="mlt_service">qimage</property>
    <property name="xml">was here</property>
    <property name="shotcut:hash">075d9ef344e26c45fa93e47cca169fdc</property>
    <property name="shotcut:caption">aircraft-1813731.jpg</property>
    <property name="meta.shotcut.vui">1</property>
    <filter id="filter0" in="00:00:07.433" out="00:03:08.800">
      <property name="background">color:#00000000</property>
      <property name="mlt_service">affine</property>
      <property name="shotcut:filter">affineSizePosition</property>
      <property name="transition.fix_rotate_x">0</property>
      <property name="transition.fill">1</property>
      <property name="transition.distort">0</property>
      <property name="transition.rect">-1191.16 -568.866 3270.06 2240 1</property>
      <property name="transition.valign">middle</property>
      <property name="transition.halign">center</property>
      <property name="shotcut:animIn">00:00:00.000</property>
      <property name="shotcut:animOut">00:00:00.000</property>
      <property name="transition.threads">0</property>
    </filter>
  </producer>
  <playlist id="playlist0">
    <property name="shotcut:video">1</property>
    <property name="shotcut:name">Hintergrundbild</property>
    <property name="shotcut:lock">0</property>
    <entry producer="producer0" in="00:00:00.000" out="00:03:08.800"/>
  </playlist>
  <producer id="producer1" in="00:00:00.000" out="03:59:59.967">
    <property name="length">04:00:00.000</property>
    <property name="eof">pause</property>
    <property name="resource">Logo_video.svg</property>
    <property name="ttl">1</property>
    <property name="aspect_ratio">1</property>
    <property name="meta.media.progressive">1</property>
    <property name="seekable">1</property>
    <property name="format">2</property>
    <property name="meta.media.width">141</property>
    <property name="meta.media.height">97</property>
    <property name="mlt_service">qimage</property>
    <property name="creation_time">2026-01-15T20:56:42</property>
    <property name="shotcut:skipConvert">1</property>
    <property name="shotcut:hash">09ffbf20750f4e214e07e002d9c818b3</property>
    <property name="shotcut:caption">Logo_video.svg</property>
    <property name="meta.shotcut.vui">1</property>
    <property name="xml">was here</property>
    <filter id="filter1" in="00:00:07.433" out="00:03:11.067">
      <property name="background">color:#00000000</property>
      <property name="mlt_service">affine</property>
      <property name="shotcut:filter">affineSizePosition</property>
      <property name="transition.fix_rotate_x">0</property>
      <property name="transition.fill">1</property>
      <property name="transition.distort">0</property>
      <property name="transition.rect">913.616 901.034 209.61 144.2 1</property>
      <property name="transition.valign">middle</property>
      <property name="transition.halign">center</property>
      <property name="shotcut:animIn">00:00:00.000</property>
      <property name="shotcut:animOut">00:00:00.000</property>
      <property name="transition.threads">0</property>
    </filter>
    <filter id="filter2" in="00:00:07.433" out="00:03:11.067">
      <property name="argument"></property>
      <property name="geometry">1163 865 729 257 1</property>
      <property name="family">Sans</property>
      <property name="size">48</property>
      <property name="weight">400</property>
      <property name="style">normal</property>
      <property name="fgcolour">0x000000ff</property>
      <property name="bgcolour">#00000000</property>
      <property name="olcolour">0x00000000</property>
      <property name="pad">0</property>
      <property name="halign">left</property>
      <property name="valign">top</property>
      <property name="outline">0</property>
      <property name="pixel_ratio">1</property>
      <property name="opacity">1</property>
      <property name="typewriter">0</property>
      <property name="typewriter.step_length">25</property>
      <property name="typewriter.step_sigma">0</property>
      <property name="typewriter.random_seed">0</property>
      <property name="typewriter.macro_type">1</property>
      <property name="typewriter.cursor">1</property>
      <property name="typewriter.cursor_blink_rate">25</property>
      <property name="typewriter.cursor_char">|</property>
      <property name="mlt_service">qtext</property>
      <property name="shotcut:filter">richText</property>
      <property name="html">&lt;!DOCTYPE HTML PUBLIC &quot;-//W3C//DTD HTML 4.0//EN&quot; &quot;http://www.w3.org/TR/REC-html40/strict.dtd&quot;&gt;
&lt;html&gt;&lt;head&gt;&lt;meta name=&quot;qrichtext&quot; content=&quot;1&quot; /&gt;&lt;meta charset=&quot;utf-8&quot; /&gt;&lt;style type=&quot;text/css&quot;&gt;
p, li { white-space: pre-wrap; }
hr { height: 1px; border-width: 0; }
li.unchecked::marker { content: &quot;\2610&quot;; }
li.checked::marker { content: &quot;\2612&quot;; }
&lt;/style&gt;&lt;/head&gt;&lt;body style=&quot; font-family:'Sans Serif'; font-size:9pt; font-weight:400; font-style:normal;&quot;&gt;
&lt;p style=&quot; margin-top:0px; margin-bottom:0px; margin-left:0px; margin-right:0px; -qt-block-indent:0; text-indent:0px;&quot;&gt;&lt;span style=&quot; font-family:'sans-serif'; font-size:57pt; font-weight:700; color:rgba(213,203,175,0.501961);&quot;&gt;M&lt;/span&gt;&lt;span style=&quot; font-family:'sans-serif'; font-size:57pt; color:rgba(213,203,175,0.501961);&quot;&gt;odel &lt;/span&gt;&lt;span style=&quot; font-family:'sans-serif'; font-size:57pt; font-weight:700; color:rgba(213,203,175,0.501961);&quot;&gt;F&lt;/span&gt;&lt;span style=&quot; font-family:'sans-serif'; font-size:45pt; color:rgba(213,203,175,0.501961);&quot;&gt;light&lt;/span&gt;&lt;span style=&quot; font-family:'sans-serif'; font-size:57pt; color:rgba(213,203,175,0.501961);&quot;&gt; &lt;/span&gt;&lt;span style=&quot; font-family:'sans-serif'; font-size:57pt; font-weight:700; color:rgba(213,203,175,0.501961);&quot;&gt;L&lt;/span&gt;&lt;span style=&quot; font-family:'sans-serif'; font-size:45pt; color:rgba(213,203,175,0.501961);&quot;&gt;ogbook&lt;/span&gt;&lt;span style=&quot; font-family:'sans-serif'; font-size:72pt; color:rgba(213,203,175,0.501961);&quot;&gt;&lt;br /&gt;&lt;/span&gt;&lt;span style=&quot; font-family:'sans-serif'; font-size:27pt; color:rgba(213,203,175,0.501961);&quot;&gt;Digitales  Flugbuch für Modellflugvereine&lt;/span&gt;&lt;/p&gt;&lt;/body&gt;&lt;/html&gt;</property>
      <property name="shotcut:animIn">00:00:00.000</property>
      <property name="shotcut:animOut">00:00:00.000</property>
    </filter>
    <filter id="filter3" in="00:00:07.433" out="00:03:11.067">
      <property name="start">1</property>
      <property name="level">1</property>
      <property name="mlt_service">brightness</property>
      <property name="shotcut:filter">fadeOutBrightness</property>
      <property name="alpha">00:03:02.667=1;00:03:03.633=0</property>
      <property name="shotcut:animOut">00:00:01.000</property>
    </filter>
  </producer>
  <producer id="producer2" in="00:00:00.000" out="03:59:59.967">
    <property name="length">04:00:00.000</property>
    <property name="eof">pause</property>
    <property name="resource">mfl_qr_code.png</property>
    <property name="ttl">1</property>
    <property name="aspect_ratio">1</property>
    <property name="meta.media.progressive">1</property>
    <property name="seekable">1</property>
    <property name="format">2</property>
    <property name="meta.media.width">800</property>
    <property name="meta.media.height">800</property>
    <property name="mlt_service">qimage</property>
    <property name="creation_time">2026-01-19T20:42:42</property>
    <property name="shotcut:skipConvert">1</property>
    <property name="shotcut:hash">a4337d5e0f3209938a5ce9373b564f30</property>
    <property name="shotcut:caption">mfl_qr_code.png</property>
    <property name="meta.shotcut.vui">1</property>
    <filter id="filter4" out="00:00:04.933">
      <property name="background">color:#00000000</property>
      <property name="mlt_service">affine</property>
      <property name="shotcut:filter">affineSizePosition</property>
      <property name="transition.fix_rotate_x">0</property>
      <property name="transition.fill">1</property>
      <property name="transition.distort">0</property>
      <property name="transition.rect">1267 188.599 400 400 1</property>
      <property name="transition.valign">middle</property>
      <property name="transition.halign">center</property>
      <property name="shotcut:animIn">00:00:00.000</property>
      <property name="shotcut:animOut">00:00:00.000</property>
      <property name="transition.threads">0</property>
    </filter>
    <filter id="filter5" out="00:00:04.933">
      <property name="start">1</property>
      <property name="level">1</property>
      <property name="mlt_service">brightness</property>
      <property name="shotcut:filter">fadeInBrightness</property>
      <property name="alpha">00:00:00.000=0;00:00:00.967=1</property>
      <property name="shotcut:animIn">30</property>
    </filter>
    <filter id="filter6" out="00:00:04.933">
      <property name="window">75</property>
      <property name="max_gain">20dB</property>
      <property name="level">00:00:00.000=-60;00:00:00.967=0</property>
      <property name="channel_mask">-1</property>
      <property name="mlt_service">volume</property>
      <property name="shotcut:filter">fadeInVolume</property>
      <property name="shotcut:animIn">30</property>
    </filter>
  </producer>
  <playlist id="playlist1">
    <property name="shotcut:video">1</property>
    <property name="shotcut:name">Logo und Text</property>
    <property name="shotcut:lock">0</property>
    <entry producer="producer1" in="00:00:07.433" out="00:03:11.067"/>
    <blank length="00:00:00.200"/>
    <entry producer="producer2" in="00:00:00.000" out="00:00:04.933"/>
  </playlist>
  <producer id="producer3" in="00:00:00.000" out="03:59:59.967">
    <property name="length">04:00:00.000</property>
    <property name="eof">pause</property>
    <property name="resource">#00000000</property>
    <property name="aspect_ratio">1</property>
    <property name="mlt_service">color</property>
    <property name="mlt_image_format">rgba</property>
    <property name="shotcut:caption">transparent</property>
    <property name="shotcut:detail">transparent</property>
    <property name="xml">was here</property>
    <property name="seekable">1</property>
    <property name="meta.shotcut.vui">1</property>
    <filter id="filter7" in="00:00:07.433" out="00:00:14.433">
      <property name="argument"></property>
      <property name="geometry">514 58 1351 792 1</property>
      <property name="family">Sans</property>
      <property name="size">48</property>
      <property name="weight">400</property>
      <property name="style">normal</property>
      <property name="fgcolour">0x000000ff</property>
      <property name="bgcolour">#00000000</property>
      <property name="olcolour">0x00000000</property>
      <property name="pad">0</property>
      <property name="halign">left</property>
      <property name="valign">top</property>
      <property name="outline">0</property>
      <property name="pixel_ratio">1</property>
      <property name="opacity">1</property>
      <property name="typewriter">0</property>
      <property name="typewriter.step_length">25</property>
      <property name="typewriter.step_sigma">0</property>
      <property name="typewriter.random_seed">0</property>
      <property name="typewriter.macro_type">1</property>
      <property name="typewriter.cursor">1</property>
      <property name="typewriter.cursor_blink_rate">25</property>
      <property name="typewriter.cursor_char">|</property>
      <property name="mlt_service">qtext</property>
      <property name="shotcut:filter">richText</property>
      <property name="html">&lt;!DOCTYPE HTML PUBLIC &quot;-//W3C//DTD HTML 4.0//EN&quot; &quot;http://www.w3.org/TR/REC-html40/strict.dtd&quot;&gt;
&lt;html&gt;&lt;head&gt;&lt;meta name=&quot;qrichtext&quot; content=&quot;1&quot; /&gt;&lt;meta charset=&quot;utf-8&quot; /&gt;&lt;style type=&quot;text/css&quot;&gt;
p, li { white-space: pre-wrap; }
hr { height: 1px; border-width: 0; }
li.unchecked::marker { content: &quot;\2610&quot;; }
li.checked::marker { content: &quot;\2612&quot;; }
&lt;/style&gt;&lt;/head&gt;&lt;body style=&quot; font-family:'Sans Serif'; font-size:9pt; font-weight:400; font-style:normal;&quot;&gt;
&lt;p align=&quot;right&quot; style=&quot; margin-top:0px; margin-bottom:0px; margin-left:0px; margin-right:0px; -qt-block-indent:0; text-indent:0px;&quot;&gt;&lt;span style=&quot; font-family:'sans-serif'; font-size:142pt; font-weight:700; text-decoration: underline; color:#d5cbaf;&quot;&gt;MFL Terminal&lt;/span&gt;&lt;/p&gt;
&lt;p align=&quot;right&quot; style=&quot; margin-top:0px; margin-bottom:0px; margin-left:0px; margin-right:0px; -qt-block-indent:0; text-indent:0px;&quot;&gt;&lt;span style=&quot; font-family:'sans-serif'; font-size:38pt; font-weight:700; color:#d5cbaf;&quot;&gt;Open Source Stempeluhr für den Modellflugplatz&lt;/span&gt;&lt;/p&gt;
&lt;p align=&quot;right&quot; style=&quot;-qt-paragraph-type:empty; margin-top:0px; margin-bottom:0px; margin-left:0px; margin-right:0px; -qt-block-indent:0; text-indent:0px; font-size:35pt;&quot;&gt;&lt;br /&gt;&lt;/p&gt;
&lt;p align=&quot;right&quot; style=&quot;-qt-paragraph-type:empty; margin-top:0px; margin-bottom:0px; margin-left:0px; margin-right:0px; -qt-block-indent:0; text-indent:0px; font-family:'sans-serif'; font-size:42pt; font-weight:700; color:#d5cbaf;&quot;&gt;&lt;br /&gt;&lt;/p&gt;
&lt;p align=&quot;right&quot; style=&quot; margin-top:0px; margin-bottom:0px; margin-left:0px; margin-right:0px; -qt-block-indent:0; text-indent:0px;&quot;&gt;&lt;span style=&quot; font-family:'sans-serif'; font-size:70pt; font-weight:700; font-style:italic; color:#d5cbaf;&quot;&gt;Funktionsübersicht&lt;/span&gt;&lt;/p&gt;&lt;/body&gt;&lt;/html&gt;</property>
      <property name="shotcut:animIn">00:00:00.000</property>
      <property name="shotcut:animOut">00:00:00.000</property>
    </filter>
    <filter id="filter8" in="00:00:07.433" out="00:00:14.433">
      <property name="start">1</property>
      <property name="level">1</property>
      <property name="mlt_service">brightness</property>
      <property name="shotcut:filter">fadeOutBrightness</property>
      <property name="alpha">00:00:06.033=1;00:00:07.000=0</property>
      <property name="shotcut:animOut">00:00:01.000</property>
    </filter>
  </producer>
  <producer id="producer4" in="00:00:00.000" out="03:59:59.967">
    <property name="length">04:00:00.000</property>
    <property name="eof">pause</property>
    <property name="resource">mfl_terminal_dashboard.png</property>
    <property name="ttl">1</property>
    <property name="aspect_ratio">1</property>
    <property name="meta.media.progressive">1</property>
    <property name="seekable">1</property>
    <property name="format">2</property>
    <property name="meta.media.width">797</property>
    <property name="meta.media.height">460</property>
    <property name="mlt_service">qimage</property>
    <property name="creation_time">2026-01-15T22:15:43</property>
    <property name="shotcut:skipConvert">1</property>
    <property name="shotcut:hash">7a97546f255bf8c2de60a43aa9cbc386</property>
    <property name="shotcut:caption">Dashboard</property>
    <property name="meta.shotcut.vui">1</property>
    <property name="xml">was here</property>
    <filter id="filter9" out="00:00:51.133">
      <property name="background">color:#00000000</property>
      <property name="mlt_service">affine</property>
      <property name="shotcut:filter">affineSizePosition</property>
      <property name="transition.fix_rotate_x">0</property>
      <property name="transition.fill">1</property>
      <property name="transition.distort">0</property>
      <property name="transition.rect">170 97 1145.74 661.283 1</property>
      <property name="transition.valign">middle</property>
      <property name="transition.halign">center</property>
      <property name="shotcut:animIn">00:00:00.000</property>
      <property name="shotcut:animOut">00:00:00.000</property>
      <property name="transition.threads">0</property>
    </filter>
    <filter id="filter10" out="00:00:51.133">
      <property name="start">1</property>
      <property name="level">00:00:00.000=0;00:00:00.367=1</property>
      <property name="mlt_service">brightness</property>
      <property name="shotcut:filter">fadeInBrightness</property>
      <property name="alpha">1</property>
      <property name="shotcut:animIn">00:00:00.400</property>
    </filter>
  </producer>
  <producer id="producer5" in="00:00:00.000" out="03:59:59.967">
    <property name="length">04:00:00.000</property>
    <property name="eof">pause</property>
    <property name="resource">mfl_terminal_pilotstatus.png</property>
    <property name="ttl">1</property>
    <property name="aspect_ratio">1</property>
    <property name="meta.media.progressive">1</property>
    <property name="seekable">1</property>
    <property name="format">2</property>
    <property name="meta.media.width">801</property>
    <property name="meta.media.height">460</property>
    <property name="mlt_service">qimage</property>
    <property name="creation_time">2026-01-16T17:15:04</property>
    <property name="shotcut:skipConvert">1</property>
    <property name="shotcut:hash">c90d9ce460126f05f1abae6b74873e45</property>
    <property name="shotcut:caption">mfl_terminal_pilotstatus.png</property>
    <property name="meta.shotcut.vui">1</property>
    <property name="xml">was here</property>
    <filter id="filter11" in="00:00:00.600" out="00:00:04.433">
      <property name="background">color:#00000000</property>
      <property name="mlt_service">affine</property>
      <property name="shotcut:filter">affineSizePosition</property>
      <property name="transition.fix_rotate_x">0</property>
      <property name="transition.fill">1</property>
      <property name="transition.distort">0</property>
      <property name="transition.rect">168 99 1145 657.553 1</property>
      <property name="transition.valign">middle</property>
      <property name="transition.halign">center</property>
      <property name="shotcut:animIn">00:00:00.000</property>
      <property name="shotcut:animOut">00:00:00.000</property>
      <property name="transition.threads">0</property>
    </filter>
  </producer>
  <producer id="producer6" in="00:00:00.000" out="03:59:59.967">
    <property name="length">04:00:00.000</property>
    <property name="eof">pause</property>
    <property name="resource">mfl_terminal_flugbuchliste.png</property>
    <property name="ttl">1</property>
    <property name="aspect_ratio">1</property>
    <property name="meta.media.progressive">1</property>
    <property name="seekable">1</property>
    <property name="format">2</property>
    <property name="meta.media.width">797</property>
    <property name="meta.media.height">459</property>
    <property name="mlt_service">qimage</property>
    <property name="creation_time">2026-01-17T08:58:27</property>
    <property name="shotcut:skipConvert">1</property>
    <property name="shotcut:hash">f4aa52a6d3f4d8deafa6e364a392a1c9</property>
    <property name="shotcut:caption">mfl_terminal_flugbuchliste.png</property>
    <property name="meta.shotcut.vui">1</property>
    <property name="xml">was here</property>
    <filter id="filter12" out="00:00:16.533">
      <property name="background">color:#00000000</property>
      <property name="mlt_service">affine</property>
      <property name="shotcut:filter">affineSizePosition</property>
      <property name="transition.fix_rotate_x">0</property>
      <property name="transition.fill">1</property>
      <property name="transition.distort">0</property>
      <property name="transition.rect">166 99 1145 659.417 1</property>
      <property name="transition.valign">middle</property>
      <property name="transition.halign">center</property>
      <property name="shotcut:animIn">00:00:00.000</property>
      <property name="shotcut:animOut">00:00:00.000</property>
      <property name="transition.threads">0</property>
    </filter>
  </producer>
  <producer id="producer7" in="00:00:00.000" out="03:59:59.967">
    <property name="length">04:00:00.000</property>
    <property name="eof">pause</property>
    <property name="resource">mfl_terminal_pilotstatus.png</property>
    <property name="ttl">1</property>
    <property name="aspect_ratio">1</property>
    <property name="meta.media.progressive">1</property>
    <property name="seekable">1</property>
    <property name="format">2</property>
    <property name="meta.media.width">801</property>
    <property name="meta.media.height">460</property>
    <property name="mlt_service">qimage</property>
    <property name="creation_time">2026-01-16T17:15:04</property>
    <property name="shotcut:skipConvert">1</property>
    <property name="shotcut:hash">c90d9ce460126f05f1abae6b74873e45</property>
    <property name="shotcut:caption">mfl_terminal_pilotstatus.png</property>
    <property name="meta.shotcut.vui">1</property>
    <property name="xml">was here</property>
    <filter id="filter13" out="00:00:04.467">
      <property name="background">color:#00000000</property>
      <property name="mlt_service">affine</property>
      <property name="shotcut:filter">affineSizePosition</property>
      <property name="transition.fix_rotate_x">0</property>
      <property name="transition.fill">1</property>
      <property name="transition.distort">0</property>
      <property name="transition.rect">168 99 1145 657.553 1</property>
      <property name="transition.valign">middle</property>
      <property name="transition.halign">center</property>
      <property name="shotcut:animIn">00:00:00.000</property>
      <property name="shotcut:animOut">00:00:00.000</property>
      <property name="transition.threads">0</property>
    </filter>
  </producer>
  <producer id="producer8" in="00:00:00.000" out="03:59:59.967">
    <property name="length">04:00:00.000</property>
    <property name="eof">pause</property>
    <property name="resource">mfl_terminal_pilotstatus_infos.png</property>
    <property name="ttl">1</property>
    <property name="aspect_ratio">1</property>
    <property name="meta.media.progressive">1</property>
    <property name="seekable">1</property>
    <property name="format">2</property>
    <property name="meta.media.width">801</property>
    <property name="meta.media.height">460</property>
    <property name="mlt_service">qimage</property>
    <property name="xml">was here</property>
    <property name="shotcut:hash">7fd79bc58d7aa0303e161c6c92ae503a</property>
    <property name="shotcut:caption">mfl_terminal_pilotstatus_infos.png</property>
    <property name="meta.shotcut.vui">1</property>
    <filter id="filter14" in="00:00:15.833" out="00:00:29.067">
      <property name="background">color:#00000000</property>
      <property name="mlt_service">affine</property>
      <property name="shotcut:filter">affineSizePosition</property>
      <property name="transition.fix_rotate_x">0</property>
      <property name="transition.fill">1</property>
      <property name="transition.distort">0</property>
      <property name="transition.rect">168 99 1145 657.553 1</property>
      <property name="transition.valign">middle</property>
      <property name="transition.halign">center</property>
      <property name="shotcut:animIn">00:00:00.000</property>
      <property name="shotcut:animOut">00:00:00.000</property>
      <property name="transition.threads">0</property>
    </filter>
  </producer>
  <tractor id="tractor0" in="00:00:00.000" out="00:00:00.567">
    <property name="shotcut:transition">lumaMix</property>
    <track producer="producer7" in="00:00:03.900" out="00:00:04.467"/>
    <track producer="producer8" in="00:00:15.833" out="00:00:16.400"/>
    <transition id="transition0" out="00:00:00.567">
      <property name="a_track">0</property>
      <property name="b_track">1</property>
      <property name="factory">loader</property>
      <property name="mlt_service">luma</property>
      <property name="alpha_over">1</property>
      <property name="fix_background_alpha">1</property>
    </transition>
    <transition id="transition1" out="00:00:00.567">
      <property name="a_track">0</property>
      <property name="b_track">1</property>
      <property name="mlt_service">mix</property>
      <property name="start">-1</property>
      <property name="accepts_blanks">1</property>
    </transition>
  </tractor>
  <producer id="producer9" in="00:00:00.000" out="03:59:59.967">
    <property name="length">04:00:00.000</property>
    <property name="eof">pause</property>
    <property name="resource">mfl_terminal_pilotstatus_fehler.png</property>
    <property name="ttl">1</property>
    <property name="aspect_ratio">1</property>
    <property name="meta.media.progressive">1</property>
    <property name="seekable">1</property>
    <property name="format">2</property>
    <property name="meta.media.width">801</property>
    <property name="meta.media.height">460</property>
    <property name="mlt_service">qimage</property>
    <property name="creation_time">2026-01-16T17:40:06</property>
    <property name="shotcut:skipConvert">1</property>
    <property name="shotcut:hash">ebfc3b26eac66e27a9af173be45fcc3a</property>
    <property name="shotcut:caption">mfl_terminal_pilotstatus_fehler.png</property>
    <property name="meta.shotcut.vui">1</property>
    <property name="xml">was here</property>
    <filter id="filter15" in="00:00:02.800" out="00:00:17.800">
      <property name="background">color:#00000000</property>
      <property name="mlt_service">affine</property>
      <property name="shotcut:filter">affineSizePosition</property>
      <property name="transition.fix_rotate_x">0</property>
      <property name="transition.fill">1</property>
      <property name="transition.distort">0</property>
      <property name="transition.rect">168 99 1145 657.553 1</property>
      <property name="transition.valign">middle</property>
      <property name="transition.halign">center</property>
      <property name="shotcut:animIn">00:00:00.000</property>
      <property name="shotcut:animOut">00:00:00.000</property>
      <property name="transition.threads">0</property>
    </filter>
  </producer>
  <tractor id="tractor1" in="00:00:00.000" out="00:00:01.067">
    <property name="shotcut:transition">lumaMix</property>
    <track producer="producer8" in="00:00:28.000" out="00:00:29.067"/>
    <track producer="producer9" in="00:00:02.800" out="00:00:03.867"/>
    <transition id="transition2" out="00:00:01.067">
      <property name="a_track">0</property>
      <property name="b_track">1</property>
      <property name="factory">loader</property>
      <property name="mlt_service">luma</property>
      <property name="alpha_over">1</property>
      <property name="fix_background_alpha">1</property>
    </transition>
    <transition id="transition3" out="00:00:01.067">
      <property name="a_track">0</property>
      <property name="b_track">1</property>
      <property name="mlt_service">mix</property>
      <property name="start">-1</property>
      <property name="accepts_blanks">1</property>
    </transition>
  </tractor>
  <producer id="producer10" in="00:00:00.000" out="03:59:59.967">
    <property name="length">04:00:00.000</property>
    <property name="eof">pause</property>
    <property name="resource">mfl_terminal_pilotstatus_warnungen.png</property>
    <property name="ttl">1</property>
    <property name="aspect_ratio">1</property>
    <property name="meta.media.progressive">1</property>
    <property name="seekable">1</property>
    <property name="format">2</property>
    <property name="meta.media.width">801</property>
    <property name="meta.media.height">460</property>
    <property name="mlt_service">qimage</property>
    <property name="xml">was here</property>
    <property name="shotcut:hash">dfef2da5e903af02fcd6333bd180eb1a</property>
    <property name="shotcut:caption">mfl_terminal_pilotstatus_warnungen.png</property>
    <property name="meta.shotcut.vui">1</property>
    <filter id="filter16" out="00:00:18.567">
      <property name="background">color:#00000000</property>
      <property name="mlt_service">affine</property>
      <property name="shotcut:filter">affineSizePosition</property>
      <property name="transition.fix_rotate_x">0</property>
      <property name="transition.fill">1</property>
      <property name="transition.distort">0</property>
      <property name="transition.rect">168 99 1145 657.553 1</property>
      <property name="transition.valign">middle</property>
      <property name="transition.halign">center</property>
      <property name="shotcut:animIn">00:00:00.000</property>
      <property name="shotcut:animOut">00:00:00.000</property>
      <property name="transition.threads">0</property>
    </filter>
  </producer>
  <tractor id="tractor2" in="00:00:00.000" out="00:00:01.300">
    <property name="shotcut:transition">lumaMix</property>
    <track producer="producer9" in="00:00:16.500" out="00:00:17.800"/>
    <track producer="producer10" in="00:00:05.133" out="00:00:06.433"/>
    <transition id="transition4" out="00:00:01.300">
      <property name="a_track">0</property>
      <property name="b_track">1</property>
      <property name="factory">loader</property>
      <property name="mlt_service">luma</property>
      <property name="alpha_over">1</property>
      <property name="fix_background_alpha">1</property>
    </transition>
    <transition id="transition5" out="00:00:01.300">
      <property name="a_track">0</property>
      <property name="b_track">1</property>
      <property name="mlt_service">mix</property>
      <property name="start">-1</property>
      <property name="accepts_blanks">1</property>
    </transition>
  </tractor>
  <chain id="chain4" out="00:00:02.467">
    <property name="length">00:00:02.500</property>
    <property name="eof">pause</property>
    <property name="resource">mfl_terminal_pilotstatus_warnungen - Konvertiert.mp4</property>
    <property name="mlt_service">avformat-novalidate</property>
    <property name="meta.media.nb_streams">1</property>
    <property name="meta.media.0.stream.type">video</property>
    <property name="meta.media.0.stream.frame_rate">30</property>
    <property name="meta.media.0.stream.sample_aspect_ratio">1</property>
    <property name="meta.media.0.codec.width">802</property>
    <property name="meta.media.0.codec.height">490</property>
    <property name="meta.media.0.codec.rotate">0</property>
    <property name="meta.media.0.codec.pix_fmt">yuv420p</property>
    <property name="meta.media.0.codec.sample_aspect_ratio">1</property>
    <property name="meta.media.0.codec.colorspace">709</property>
    <property name="meta.media.0.codec.color_trc">1</property>
    <property name="meta.media.0.codec.name">h264</property>
    <property name="meta.media.0.codec.long_name">H.264 / AVC / MPEG-4 AVC / MPEG-4 part 10</property>
    <property name="meta.media.0.codec.bit_rate">5326160</property>
    <property name="meta.attr.0.stream.handler_name.markup">VideoHandler</property>
    <property name="meta.attr.0.stream.vendor_id.markup">[0][0][0][0]</property>
    <property name="meta.attr.0.stream.encoder.markup">Lavc62.11.100 libx264</property>
    <property name="meta.attr.major_brand.markup">isom</property>
    <property name="meta.attr.minor_version.markup">512</property>
    <property name="meta.attr.compatible_brands.markup">isomiso2avc1mp41</property>
    <property name="meta.attr.encoder.markup">Lavf62.3.100</property>
    <property name="seekable">1</property>
    <property name="meta.media.sample_aspect_num">1</property>
    <property name="meta.media.sample_aspect_den">1</property>
    <property name="format">3</property>
    <property name="audio_index">-1</property>
    <property name="video_index">0</property>
    <property name="creation_time">2026-01-16T17:23:52</property>
    <property name="vstream">0</property>
    <property name="meta.media.frame_rate_num">30</property>
    <property name="meta.media.frame_rate_den">1</property>
    <property name="meta.media.colorspace">709</property>
    <property name="meta.media.color_trc">1</property>
    <property name="meta.media.has_b_frames">0</property>
    <property name="meta.media.width">802</property>
    <property name="meta.media.height">490</property>
    <property name="meta.media.aspect_ratio">1</property>
    <property name="meta.media.color_range">mpeg</property>
    <property name="shotcut:hash">ba107d259a101618128cf57f462764e6</property>
    <property name="shotcut:caption">mfl_terminal_pilotstatus_warnungen - Konvertiert.mp4</property>
    <property name="xml">was here</property>
    <property name="meta.media.top_field_first">0</property>
    <property name="meta.media.progressive">1</property>
    <property name="meta.shotcut.vui">1</property>
    <filter id="filter17" out="00:00:02.467">
      <property name="background">color:#00000000</property>
      <property name="mlt_service">affine</property>
      <property name="shotcut:filter">affineSizePosition</property>
      <property name="transition.fix_rotate_x">0</property>
      <property name="transition.fill">1</property>
      <property name="transition.distort">0</property>
      <property name="transition.rect">168 60 1147.84 701.299 1</property>
      <property name="transition.valign">middle</property>
      <property name="transition.halign">center</property>
      <property name="shotcut:animIn">00:00:00.000</property>
      <property name="shotcut:animOut">00:00:00.000</property>
      <property name="transition.threads">0</property>
    </filter>
  </chain>
  <producer id="producer11" in="00:00:00.000" out="03:59:59.967">
    <property name="length">04:00:00.000</property>
    <property name="eof">pause</property>
    <property name="resource">mfl_terminal_pilotstatus_warnungen_lastframe.png</property>
    <property name="ttl">1</property>
    <property name="aspect_ratio">1</property>
    <property name="meta.media.progressive">1</property>
    <property name="seekable">1</property>
    <property name="format">2</property>
    <property name="meta.media.width">1920</property>
    <property name="meta.media.height">1080</property>
    <property name="mlt_service">qimage</property>
    <property name="creation_time">2026-01-16T21:01:52</property>
    <property name="shotcut:skipConvert">1</property>
    <property name="shotcut:hash">caec37d707c5777d6905ebcc1afe6811</property>
    <property name="shotcut:caption">mfl_terminal_pilotstatus_warnungen_lastframe.png</property>
    <property name="xml">was here</property>
  </producer>
  <chain id="chain5" out="00:00:03.167">
    <property name="length">00:00:03.200</property>
    <property name="eof">pause</property>
    <property name="resource">mfl_terminal_checkinsequence - Konvertiert.mp4</property>
    <property name="mlt_service">avformat-novalidate</property>
    <property name="meta.media.nb_streams">1</property>
    <property name="meta.media.0.stream.type">video</property>
    <property name="meta.media.0.stream.frame_rate">30</property>
    <property name="meta.media.0.stream.sample_aspect_ratio">1</property>
    <property name="meta.media.0.codec.width">802</property>
    <property name="meta.media.0.codec.height">490</property>
    <property name="meta.media.0.codec.rotate">0</property>
    <property name="meta.media.0.codec.pix_fmt">yuv420p</property>
    <property name="meta.media.0.codec.sample_aspect_ratio">1</property>
    <property name="meta.media.0.codec.colorspace">709</property>
    <property name="meta.media.0.codec.color_trc">1</property>
    <property name="meta.media.0.codec.name">h264</property>
    <property name="meta.media.0.codec.long_name">H.264 / AVC / MPEG-4 AVC / MPEG-4 part 10</property>
    <property name="meta.media.0.codec.bit_rate">5308432</property>
    <property name="meta.attr.0.stream.handler_name.markup">VideoHandler</property>
    <property name="meta.attr.0.stream.vendor_id.markup">[0][0][0][0]</property>
    <property name="meta.attr.0.stream.encoder.markup">Lavc62.11.100 libx264</property>
    <property name="meta.attr.major_brand.markup">isom</property>
    <property name="meta.attr.minor_version.markup">512</property>
    <property name="meta.attr.compatible_brands.markup">isomiso2avc1mp41</property>
    <property name="meta.attr.encoder.markup">Lavf62.3.100</property>
    <property name="seekable">1</property>
    <property name="meta.media.sample_aspect_num">1</property>
    <property name="meta.media.sample_aspect_den">1</property>
    <property name="format">3</property>
    <property name="audio_index">-1</property>
    <property name="video_index">0</property>
    <property name="creation_time">2026-01-16T21:58:33</property>
    <property name="vstream">0</property>
    <property name="meta.media.frame_rate_num">30</property>
    <property name="meta.media.frame_rate_den">1</property>
    <property name="meta.media.colorspace">709</property>
    <property name="meta.media.color_trc">1</property>
    <property name="meta.media.has_b_frames">0</property>
    <property name="meta.media.width">802</property>
    <property name="meta.media.height">490</property>
    <property name="meta.media.aspect_ratio">1</property>
    <property name="meta.media.color_range">mpeg</property>
    <property name="shotcut:hash">7cca2f76c1192f432609ae325c003a0c</property>
    <property name="shotcut:caption">mfl_terminal_checkinsequence - Konvertiert.mp4</property>
    <property name="xml">was here</property>
    <property name="meta.media.top_field_first">0</property>
    <property name="meta.media.progressive">1</property>
    <property name="meta.shotcut.vui">1</property>
    <filter id="filter18" out="00:00:03.100">
      <property name="background">color:#00000000</property>
      <property name="mlt_service">affine</property>
      <property name="shotcut:filter">affineSizePosition</property>
      <property name="transition.fix_rotate_x">0</property>
      <property name="transition.fill">1</property>
      <property name="transition.distort">0</property>
      <property name="transition.rect">168 60 1148 701.397 1</property>
      <property name="transition.valign">middle</property>
      <property name="transition.halign">center</property>
      <property name="shotcut:animIn">00:00:00.000</property>
      <property name="shotcut:animOut">00:00:00.000</property>
      <property name="transition.threads">0</property>
    </filter>
  </chain>
  <producer id="producer12" in="00:00:00.000" out="03:59:59.967">
    <property name="length">04:00:00.000</property>
    <property name="eof">pause</property>
    <property name="resource">mfl_terminal_dashboard.png</property>
    <property name="ttl">1</property>
    <property name="aspect_ratio">1</property>
    <property name="meta.media.progressive">1</property>
    <property name="seekable">1</property>
    <property name="format">2</property>
    <property name="meta.media.width">797</property>
    <property name="meta.media.height">460</property>
    <property name="mlt_service">qimage</property>
    <property name="creation_time">2026-01-15T22:15:43</property>
    <property name="shotcut:skipConvert">1</property>
    <property name="shotcut:hash">7a97546f255bf8c2de60a43aa9cbc386</property>
    <property name="shotcut:caption">mfl_terminal_dashboard.png</property>
    <property name="meta.shotcut.vui">1</property>
    <property name="xml">was here</property>
    <filter id="filter19" in="00:00:03.533" out="00:00:17.033">
      <property name="background">color:#00000000</property>
      <property name="mlt_service">affine</property>
      <property name="shotcut:filter">affineSizePosition</property>
      <property name="transition.fix_rotate_x">0</property>
      <property name="transition.fill">1</property>
      <property name="transition.distort">0</property>
      <property name="transition.rect">170 99.5772 1143 659.699 1</property>
      <property name="transition.valign">middle</property>
      <property name="transition.halign">center</property>
      <property name="shotcut:animIn">00:00:00.000</property>
      <property name="shotcut:animOut">00:00:00.000</property>
      <property name="transition.threads">0</property>
    </filter>
  </producer>
  <producer id="producer13" in="00:00:00.000" out="03:59:59.967">
    <property name="length">04:00:00.000</property>
    <property name="eof">pause</property>
    <property name="resource">mfl_terminal_dashboard_1030.png</property>
    <property name="ttl">1</property>
    <property name="aspect_ratio">1</property>
    <property name="meta.media.progressive">1</property>
    <property name="seekable">1</property>
    <property name="format">2</property>
    <property name="meta.media.width">801</property>
    <property name="meta.media.height">459</property>
    <property name="mlt_service">qimage</property>
    <property name="xml">was here</property>
    <property name="shotcut:hash">df2566ad57191e56b86ec3a42bbd9330</property>
    <property name="shotcut:caption">mfl_terminal_dashboard_1030.png</property>
    <property name="meta.shotcut.vui">1</property>
    <filter id="filter20" out="00:00:02.800">
      <property name="background">color:#00000000</property>
      <property name="mlt_service">affine</property>
      <property name="shotcut:filter">affineSizePosition</property>
      <property name="transition.fix_rotate_x">0</property>
      <property name="transition.fill">1</property>
      <property name="transition.distort">0</property>
      <property name="transition.rect">166.5 99 1150 658.989 1</property>
      <property name="transition.valign">middle</property>
      <property name="transition.halign">center</property>
      <property name="shotcut:animIn">00:00:00.000</property>
      <property name="shotcut:animOut">00:00:00.000</property>
      <property name="transition.threads">0</property>
    </filter>
  </producer>
  <tractor id="tractor3" in="00:00:00.000" out="00:00:00.467">
    <property name="shotcut:transition">lumaMix</property>
    <track producer="producer12" in="00:00:16.567" out="00:00:17.033"/>
    <track producer="producer13" in="00:00:00.000" out="00:00:00.467"/>
    <transition id="transition6" out="00:00:00.467">
      <property name="a_track">0</property>
      <property name="b_track">1</property>
      <property name="factory">loader</property>
      <property name="mlt_service">luma</property>
      <property name="alpha_over">1</property>
      <property name="fix_background_alpha">1</property>
    </transition>
    <transition id="transition7" out="00:00:00.467">
      <property name="a_track">0</property>
      <property name="b_track">1</property>
      <property name="mlt_service">mix</property>
      <property name="start">-1</property>
      <property name="accepts_blanks">1</property>
    </transition>
  </tractor>
  <producer id="producer14" in="00:00:00.000" out="03:59:59.967">
    <property name="length">04:00:00.000</property>
    <property name="eof">pause</property>
    <property name="resource">mfl_terminal_dashboard_1124.png</property>
    <property name="ttl">1</property>
    <property name="aspect_ratio">1</property>
    <property name="meta.media.progressive">1</property>
    <property name="seekable">1</property>
    <property name="format">2</property>
    <property name="meta.media.width">801</property>
    <property name="meta.media.height">459</property>
    <property name="mlt_service">qimage</property>
    <property name="creation_time">2026-01-16T22:19:09</property>
    <property name="shotcut:skipConvert">1</property>
    <property name="shotcut:hash">ac8f9726f2e298561f8154f291b98730</property>
    <property name="shotcut:caption">mfl_terminal_dashboard_1124.png</property>
    <property name="meta.shotcut.vui">1</property>
    <property name="xml">was here</property>
    <filter id="filter21" out="00:00:02.767">
      <property name="background">color:#00000000</property>
      <property name="mlt_service">affine</property>
      <property name="shotcut:filter">affineSizePosition</property>
      <property name="transition.fix_rotate_x">0</property>
      <property name="transition.fill">1</property>
      <property name="transition.distort">0</property>
      <property name="transition.rect">167 99 1150 658.989 1</property>
      <property name="transition.valign">middle</property>
      <property name="transition.halign">center</property>
      <property name="shotcut:animIn">00:00:00.000</property>
      <property name="shotcut:animOut">00:00:00.000</property>
      <property name="transition.threads">0</property>
    </filter>
  </producer>
  <tractor id="tractor4" in="00:00:00.000" out="00:00:00.467">
    <property name="shotcut:transition">lumaMix</property>
    <track producer="producer13" in="00:00:02.333" out="00:00:02.800"/>
    <track producer="producer14" in="00:00:00.000" out="00:00:00.467"/>
    <transition id="transition8" out="00:00:00.467">
      <property name="a_track">0</property>
      <property name="b_track">1</property>
      <property name="factory">loader</property>
      <property name="mlt_service">luma</property>
      <property name="alpha_over">1</property>
      <property name="fix_background_alpha">1</property>
    </transition>
    <transition id="transition9" out="00:00:00.467">
      <property name="a_track">0</property>
      <property name="b_track">1</property>
      <property name="mlt_service">mix</property>
      <property name="start">-1</property>
      <property name="accepts_blanks">1</property>
    </transition>
  </tractor>
  <producer id="producer15" in="00:00:00.000" out="03:59:59.967">
    <property name="length">04:00:00.000</property>
    <property name="eof">pause</property>
    <property name="resource">mfl_terminal_dashboard_1216.png</property>
    <property name="ttl">1</property>
    <property name="aspect_ratio">1</property>
    <property name="meta.media.progressive">1</property>
    <property name="seekable">1</property>
    <property name="format">2</property>
    <property name="meta.media.width">801</property>
    <property name="meta.media.height">459</property>
    <property name="mlt_service">qimage</property>
    <property name="xml">was here</property>
    <property name="shotcut:hash">50484d9c8acc6b74859b261a6d467f41</property>
    <property name="shotcut:caption">mfl_terminal_dashboard_1216.png</property>
    <property name="meta.shotcut.vui">1</property>
    <filter id="filter22" in="00:00:00.167" out="00:00:03.333">
      <property name="background">color:#00000000</property>
      <property name="mlt_service">affine</property>
      <property name="shotcut:filter">affineSizePosition</property>
      <property name="transition.fix_rotate_x">0</property>
      <property name="transition.fill">1</property>
      <property name="transition.distort">0</property>
      <property name="transition.rect">167 99 1150 658.989 1</property>
      <property name="transition.valign">middle</property>
      <property name="transition.halign">center</property>
      <property name="shotcut:animIn">00:00:00.000</property>
      <property name="shotcut:animOut">00:00:00.000</property>
      <property name="transition.threads">0</property>
    </filter>
  </producer>
  <tractor id="tractor5" in="00:00:00.000" out="00:00:00.467">
    <property name="shotcut:transition">lumaMix</property>
    <track producer="producer14" in="00:00:02.300" out="00:00:02.767"/>
    <track producer="producer15" in="00:00:00.167" out="00:00:00.633"/>
    <transition id="transition10" out="00:00:00.467">
      <property name="a_track">0</property>
      <property name="b_track">1</property>
      <property name="factory">loader</property>
      <property name="mlt_service">luma</property>
      <property name="alpha_over">1</property>
      <property name="fix_background_alpha">1</property>
    </transition>
    <transition id="transition11" out="00:00:00.467">
      <property name="a_track">0</property>
      <property name="b_track">1</property>
      <property name="mlt_service">mix</property>
      <property name="start">-1</property>
      <property name="accepts_blanks">1</property>
    </transition>
  </tractor>
  <producer id="producer16" in="00:00:00.000" out="03:59:59.967">
    <property name="length">04:00:00.000</property>
    <property name="eof">pause</property>
    <property name="resource">mfl_terminal_checkout.png</property>
    <property name="ttl">1</property>
    <property name="aspect_ratio">1</property>
    <property name="meta.media.progressive">1</property>
    <property name="seekable">1</property>
    <property name="format">2</property>
    <property name="meta.media.width">801</property>
    <property name="meta.media.height">459</property>
    <property name="mlt_service">qimage</property>
    <property name="creation_time">2026-01-16T23:12:44</property>
    <property name="shotcut:skipConvert">1</property>
    <property name="shotcut:hash">f9b884746f4cef032d71b32f732afb64</property>
    <property name="shotcut:caption">mfl_terminal_checkout.png</property>
    <property name="meta.shotcut.vui">1</property>
    <property name="xml">was here</property>
    <filter id="filter23" out="00:00:03.433">
      <property name="background">color:#00000000</property>
      <property name="mlt_service">affine</property>
      <property name="shotcut:filter">affineSizePosition</property>
      <property name="transition.fix_rotate_x">0</property>
      <property name="transition.fill">1</property>
      <property name="transition.distort">0</property>
      <property name="transition.rect">167 99 1150 658.989 1</property>
      <property name="transition.valign">middle</property>
      <property name="transition.halign">center</property>
      <property name="shotcut:animIn">00:00:00.000</property>
      <property name="shotcut:animOut">00:00:00.000</property>
      <property name="transition.threads">0</property>
    </filter>
  </producer>
  <producer id="producer17" in="00:00:00.000" out="03:59:59.967">
    <property name="length">04:00:00.000</property>
    <property name="eof">pause</property>
    <property name="resource">mfl_terminal_checkout_rotokoll.png</property>
    <property name="ttl">1</property>
    <property name="aspect_ratio">1</property>
    <property name="meta.media.progressive">1</property>
    <property name="seekable">1</property>
    <property name="format">2</property>
    <property name="meta.media.width">801</property>
    <property name="meta.media.height">459</property>
    <property name="mlt_service">qimage</property>
    <property name="creation_time">2026-01-16T23:14:27</property>
    <property name="shotcut:skipConvert">1</property>
    <property name="shotcut:hash">210960b4e2ef2f781b74962dbb2b1263</property>
    <property name="shotcut:caption">mfl_terminal_checkout_rotokoll.png</property>
    <property name="meta.shotcut.vui">1</property>
    <property name="xml">was here</property>
    <filter id="filter24" out="00:00:14.133">
      <property name="background">color:#00000000</property>
      <property name="mlt_service">affine</property>
      <property name="shotcut:filter">affineSizePosition</property>
      <property name="transition.fix_rotate_x">0</property>
      <property name="transition.fill">1</property>
      <property name="transition.distort">0</property>
      <property name="transition.rect">167 99 1150 658.989 1</property>
      <property name="transition.valign">middle</property>
      <property name="transition.halign">center</property>
      <property name="shotcut:animIn">00:00:00.000</property>
      <property name="shotcut:animOut">00:00:00.000</property>
      <property name="transition.threads">0</property>
    </filter>
  </producer>
  <chain id="chain6" out="00:00:10.800">
    <property name="length">00:00:10.833</property>
    <property name="eof">pause</property>
    <property name="resource">mfl_terminal_protokoll_commit - Konvertiert.mp4</property>
    <property name="mlt_service">avformat-novalidate</property>
    <property name="meta.media.nb_streams">1</property>
    <property name="meta.media.0.stream.type">video</property>
    <property name="meta.media.0.stream.frame_rate">30</property>
    <property name="meta.media.0.stream.sample_aspect_ratio">1</property>
    <property name="meta.media.0.codec.width">802</property>
    <property name="meta.media.0.codec.height">490</property>
    <property name="meta.media.0.codec.rotate">0</property>
    <property name="meta.media.0.codec.pix_fmt">yuv420p</property>
    <property name="meta.media.0.codec.sample_aspect_ratio">1</property>
    <property name="meta.media.0.codec.colorspace">709</property>
    <property name="meta.media.0.codec.color_trc">1</property>
    <property name="meta.media.0.codec.name">h264</property>
    <property name="meta.media.0.codec.long_name">H.264 / AVC / MPEG-4 AVC / MPEG-4 part 10</property>
    <property name="meta.media.0.codec.bit_rate">3666111</property>
    <property name="meta.attr.0.stream.handler_name.markup">VideoHandler</property>
    <property name="meta.attr.0.stream.vendor_id.markup">[0][0][0][0]</property>
    <property name="meta.attr.0.stream.encoder.markup">Lavc62.11.100 libx264</property>
    <property name="meta.attr.major_brand.markup">isom</property>
    <property name="meta.attr.minor_version.markup">512</property>
    <property name="meta.attr.compatible_brands.markup">isomiso2avc1mp41</property>
    <property name="meta.attr.encoder.markup">Lavf62.3.100</property>
    <property name="seekable">1</property>
    <property name="meta.media.sample_aspect_num">1</property>
    <property name="meta.media.sample_aspect_den">1</property>
    <property name="format">3</property>
    <property name="audio_index">-1</property>
    <property name="video_index">0</property>
    <property name="creation_time">2026-01-16T23:25:33</property>
    <property name="vstream">0</property>
    <property name="meta.media.frame_rate_num">30</property>
    <property name="meta.media.frame_rate_den">1</property>
    <property name="meta.media.colorspace">709</property>
    <property name="meta.media.color_trc">1</property>
    <property name="meta.media.has_b_frames">0</property>
    <property name="meta.media.width">802</property>
    <property name="meta.media.height">490</property>
    <property name="meta.media.aspect_ratio">1</property>
    <property name="meta.media.color_range">mpeg</property>
    <property name="shotcut:hash">a3b6626094d4221db3dd9bc62ba8387f</property>
    <property name="shotcut:caption">mfl_terminal_protokoll_commit - Konvertiert.mp4</property>
    <property name="xml">was here</property>
    <property name="meta.media.top_field_first">0</property>
    <property name="meta.media.progressive">1</property>
    <property name="meta.shotcut.vui">1</property>
    <filter id="filter25" out="00:00:10.800">
      <property name="background">color:#00000000</property>
      <property name="mlt_service">affine</property>
      <property name="shotcut:filter">affineSizePosition</property>
      <property name="transition.fix_rotate_x">0</property>
      <property name="transition.fill">1</property>
      <property name="transition.distort">0</property>
      <property name="transition.rect">168 60 1148 701.397 1</property>
      <property name="transition.valign">middle</property>
      <property name="transition.halign">center</property>
      <property name="shotcut:animIn">00:00:00.000</property>
      <property name="shotcut:animOut">00:00:00.000</property>
      <property name="transition.threads">0</property>
    </filter>
  </chain>
  <producer id="producer18" in="00:00:00.000" out="03:59:59.967">
    <property name="length">04:00:00.000</property>
    <property name="eof">pause</property>
    <property name="resource">mfl_terminal_dashboard_nach_checkout.png</property>
    <property name="ttl">1</property>
    <property name="aspect_ratio">1</property>
    <property name="meta.media.progressive">1</property>
    <property name="seekable">1</property>
    <property name="format">2</property>
    <property name="meta.media.width">1920</property>
    <property name="meta.media.height">1080</property>
    <property name="mlt_service">qimage</property>
    <property name="creation_time">2026-01-17T13:48:33</property>
    <property name="shotcut:skipConvert">1</property>
    <property name="shotcut:hash">1854571478b1849637fb1cb521efc804</property>
    <property name="shotcut:caption">mfl_terminal_dashboard_nach_checkout.png</property>
    <property name="xml">was here</property>
    <filter id="filter26" in="00:00:01.100" out="00:00:04.300">
      <property name="start">1</property>
      <property name="level">1</property>
      <property name="mlt_service">brightness</property>
      <property name="shotcut:filter">fadeOutBrightness</property>
      <property name="alpha">00:00:02.233=1;00:00:03.200=0</property>
      <property name="shotcut:animOut">00:00:01.000</property>
    </filter>
  </producer>
  <producer id="producer19" in="00:00:00.000" out="03:59:59.967">
    <property name="length">04:00:00.000</property>
    <property name="eof">pause</property>
    <property name="resource">#00000000</property>
    <property name="aspect_ratio">1</property>
    <property name="mlt_service">color</property>
    <property name="mlt_image_format">rgba</property>
    <property name="shotcut:caption">transparent</property>
    <property name="shotcut:detail">transparent</property>
    <property name="xml">was here</property>
    <property name="seekable">1</property>
    <property name="meta.shotcut.vui">1</property>
    <filter id="filter27" out="00:00:04.933">
      <property name="argument"></property>
      <property name="geometry">632 689 1205 281 1</property>
      <property name="family">Sans</property>
      <property name="size">48</property>
      <property name="weight">400</property>
      <property name="style">normal</property>
      <property name="fgcolour">0x000000ff</property>
      <property name="bgcolour">#00000000</property>
      <property name="olcolour">0x00000000</property>
      <property name="pad">0</property>
      <property name="halign">left</property>
      <property name="valign">top</property>
      <property name="outline">0</property>
      <property name="pixel_ratio">1</property>
      <property name="opacity">1</property>
      <property name="typewriter">0</property>
      <property name="typewriter.step_length">25</property>
      <property name="typewriter.step_sigma">0</property>
      <property name="typewriter.random_seed">0</property>
      <property name="typewriter.macro_type">1</property>
      <property name="typewriter.cursor">1</property>
      <property name="typewriter.cursor_blink_rate">25</property>
      <property name="typewriter.cursor_char">|</property>
      <property name="mlt_service">qtext</property>
      <property name="shotcut:filter">richText</property>
      <property name="html">&lt;!DOCTYPE HTML PUBLIC &quot;-//W3C//DTD HTML 4.0//EN&quot; &quot;http://www.w3.org/TR/REC-html40/strict.dtd&quot;&gt;
&lt;html&gt;&lt;head&gt;&lt;meta name=&quot;qrichtext&quot; content=&quot;1&quot; /&gt;&lt;meta charset=&quot;utf-8&quot; /&gt;&lt;style type=&quot;text/css&quot;&gt;
p, li { white-space: pre-wrap; }
hr { height: 1px; border-width: 0; }
li.unchecked::marker { content: &quot;\2610&quot;; }
li.checked::marker { content: &quot;\2612&quot;; }
&lt;/style&gt;&lt;/head&gt;&lt;body style=&quot; font-family:'Sans Serif'; font-size:9pt; font-weight:400; font-style:normal;&quot;&gt;
&lt;p align=&quot;center&quot; style=&quot; margin-top:0px; margin-bottom:0px; margin-left:0px; margin-right:0px; -qt-block-indent:0; text-indent:0px;&quot;&gt;&lt;span style=&quot; font-family:'sans-serif'; font-size:74pt; font-weight:700; font-style:italic; color:#d5cbaf;&quot;&gt;Model Flight Logbook&lt;/span&gt;&lt;/p&gt;
&lt;p align=&quot;center&quot; style=&quot; margin-top:0px; margin-bottom:0px; margin-left:0px; margin-right:0px; -qt-block-indent:0; text-indent:0px;&quot;&gt;&lt;span style=&quot; font-family:'sans-serif'; font-size:32pt; font-weight:700; font-style:italic; color:#d5cbaf;&quot;&gt;https://github.com/soumas/model-flight-logbook&lt;/span&gt;&lt;/p&gt;&lt;/body&gt;&lt;/html&gt;</property>
      <property name="shotcut:animIn">00:00:00.000</property>
      <property name="shotcut:animOut">00:00:00.000</property>
    </filter>
    <filter id="filter28" out="00:00:04.933">
      <property name="start">1</property>
      <property name="level">1</property>
      <property name="mlt_service">brightness</property>
      <property name="shotcut:filter">fadeInBrightness</property>
      <property name="alpha">00:00:00.000=0;00:00:00.967=1</property>
      <property name="shotcut:animIn">00:00:01.000</property>
    </filter>
  </producer>
  <playlist id="playlist2">
    <property name="shotcut:video">1</property>
    <property name="shotcut:name">Terminal Screen</property>
    <property name="shotcut:lock">0</property>
    <entry producer="producer3" in="00:00:07.433" out="00:00:14.433"/>
    <blank length="00:00:00.333"/>
    <entry producer="producer4" in="00:00:00.000" out="00:00:51.133"/>
    <entry producer="producer5" in="00:00:00.600" out="00:00:04.433"/>
    <entry producer="producer6" in="00:00:00.000" out="00:00:16.533"/>
    <entry producer="producer7" in="00:00:00.000" out="00:00:03.867"/>
    <entry producer="tractor0" in="00:00:00.000" out="00:00:00.567"/>
    <entry producer="producer8" in="00:00:16.433" out="00:00:27.967"/>
    <entry producer="tractor1" in="00:00:00.000" out="00:00:01.067"/>
    <entry producer="producer9" in="00:00:03.900" out="00:00:16.467"/>
    <entry producer="tractor2" in="00:00:00.000" out="00:00:01.300"/>
    <entry producer="producer10" in="00:00:06.467" out="00:00:18.567"/>
    <entry producer="chain4" in="00:00:00.000" out="00:00:02.467"/>
    <entry producer="producer11" in="00:00:00.000" out="00:00:03.233"/>
    <entry producer="chain5" in="00:00:00.000" out="00:00:03.100"/>
    <entry producer="producer12" in="00:00:03.533" out="00:00:16.533"/>
    <entry producer="tractor3" in="00:00:00.000" out="00:00:00.467"/>
    <entry producer="producer13" in="00:00:00.500" out="00:00:02.300"/>
    <entry producer="tractor4" in="00:00:00.000" out="00:00:00.467"/>
    <entry producer="producer14" in="00:00:00.500" out="00:00:02.267"/>
    <entry producer="tractor5" in="00:00:00.000" out="00:00:00.467"/>
    <entry producer="producer15" in="00:00:00.667" out="00:00:03.333"/>
    <entry producer="producer16" in="00:00:00.000" out="00:00:03.433"/>
    <entry producer="producer17" in="00:00:00.000" out="00:00:14.133"/>
    <entry producer="chain6" in="00:00:00.000" out="00:00:10.800"/>
    <entry producer="producer18" in="00:00:01.100" out="00:00:04.300"/>
    <blank length="00:00:00.200"/>
    <entry producer="producer19" in="00:00:00.000" out="00:00:04.933"/>
  </playlist>
  <producer id="producer22" in="00:00:00.000" out="03:59:59.967">
    <property name="length">04:00:00.000</property>
    <property name="eof">pause</property>
    <property name="resource">mfl_terminal_background.jpeg</property>
    <property name="ttl">1</property>
    <property name="aspect_ratio">1</property>
    <property name="meta.media.progressive">1</property>
    <property name="seekable">1</property>
    <property name="format">1</property>
    <property name="meta.media.width">6106</property>
    <property name="meta.media.height">2707</property>
    <property name="mlt_service">qimage</property>
    <property name="creation_time">2026-01-15T19:34:25</property>
    <property name="shotcut:skipConvert">1</property>
    <property name="shotcut:hash">b8cc3ec2d0b89bf5ab65fcb3054c847d</property>
    <property name="shotcut:caption">Terminal Rahmen</property>
    <property name="meta.shotcut.vui">1</property>
    <property name="xml">was here</property>
    <filter id="filter36" out="00:02:56.267">
      <property name="background">color:#00000000</property>
      <property name="mlt_service">affine</property>
      <property name="shotcut:filter">affineSizePosition</property>
      <property name="transition.fix_rotate_x">0</property>
      <property name="transition.fill">0</property>
      <property name="transition.distort">0</property>
      <property name="transition.rect">31 25 1853 821.499 1</property>
      <property name="transition.valign">middle</property>
      <property name="transition.halign">center</property>
      <property name="shotcut:animIn">00:00:00.000</property>
      <property name="shotcut:animOut">00:00:00.000</property>
      <property name="transition.threads">0</property>
    </filter>
    <filter id="filter37" out="00:02:56.267">
      <property name="version">0.5</property>
      <property name="mlt_service">frei0r.bluescreen0r</property>
      <property name="threads">0</property>
      <property name="0">#00ef00</property>
      <property name="1">0.288</property>
    </filter>
    <filter id="filter38" out="00:02:56.267">
      <property name="start">1</property>
      <property name="level">1</property>
      <property name="mlt_service">brightness</property>
      <property name="shotcut:filter">fadeOutBrightness</property>
      <property name="alpha">00:02:55.300=1;00:02:56.267=0</property>
      <property name="shotcut:animOut">00:00:01.000</property>
    </filter>
  </producer>
  <producer id="producer20" in="00:00:00.000" out="03:59:59.967">
    <property name="length">04:00:00.000</property>
    <property name="eof">pause</property>
    <property name="resource">mfl_logo.png</property>
    <property name="ttl">1</property>
    <property name="aspect_ratio">1</property>
    <property name="meta.media.progressive">1</property>
    <property name="seekable">1</property>
    <property name="format">2</property>
    <property name="meta.media.width">800</property>
    <property name="meta.media.height">800</property>
    <property name="mlt_service">qimage</property>
    <property name="creation_time">2026-01-19T20:42:56</property>
    <property name="shotcut:skipConvert">1</property>
    <property name="shotcut:hash">b59821f3aebbbc6bac786b993708665e</property>
    <property name="shotcut:caption">mfl_logo.png</property>
    <property name="meta.shotcut.vui">1</property>
    <filter id="filter29" out="00:00:04.933">
      <property name="background">color:#00000000</property>
      <property name="mlt_service">affine</property>
      <property name="shotcut:filter">affineSizePosition</property>
      <property name="transition.fix_rotate_x">0</property>
      <property name="transition.fill">1</property>
      <property name="transition.distort">0</property>
      <property name="transition.rect">800 189 400 400 1</property>
      <property name="transition.valign">middle</property>
      <property name="transition.halign">center</property>
      <property name="shotcut:animIn">00:00:00.000</property>
      <property name="shotcut:animOut">00:00:00.000</property>
      <property name="transition.threads">0</property>
    </filter>
    <filter id="filter30" out="00:00:04.933">
      <property name="start">1</property>
      <property name="level">1</property>
      <property name="mlt_service">brightness</property>
      <property name="shotcut:filter">fadeInBrightness</property>
      <property name="alpha">00:00:00.000=0;00:00:00.967=1</property>
      <property name="shotcut:animIn">30</property>
    </filter>
    <filter id="filter31" out="00:00:04.933">
      <property name="window">75</property>
      <property name="max_gain">20dB</property>
      <property name="level">00:00:00.000=-60;00:00:00.967=0</property>
      <property name="channel_mask">-1</property>
      <property name="mlt_service">volume</property>
      <property name="shotcut:filter">fadeInVolume</property>
      <property name="shotcut:animIn">30</property>
    </filter>
  </producer>
  <playlist id="playlist4">
    <property name="shotcut:video">1</property>
    <property name="shotcut:name">Terminal Rahmen</property>
    <property name="shotcut:lock">0</property>
    <blank length="00:00:07.367"/>
    <entry producer="producer22" in="00:00:00.000" out="00:02:56.267"/>
    <blank length="00:00:00.200"/>
    <entry producer="producer20" in="00:00:00.000" out="00:00:04.933"/>
  </playlist>
  <chain id="chain7" out="00:02:16.567">
    <property name="length">00:02:16.600</property>
    <property name="eof">pause</property>
    <property name="resource">Charm - Anno Domini Beats.mp3</property>
    <property name="mlt_service">avformat-novalidate</property>
    <property name="meta.media.nb_streams">1</property>
    <property name="meta.media.0.stream.type">audio</property>
    <property name="meta.media.0.codec.sample_fmt">fltp</property>
    <property name="meta.media.0.codec.sample_rate">44100</property>
    <property name="meta.media.0.codec.channels">2</property>
    <property name="meta.media.0.codec.layout">stereo</property>
    <property name="meta.media.0.codec.name">mp3float</property>
    <property name="meta.media.0.codec.long_name">MP3 (MPEG audio layer 3)</property>
    <property name="meta.media.0.codec.bit_rate">320000</property>
    <property name="meta.attr.0.stream.encoder.markup">Lavf</property>
    <property name="meta.attr.encoder.markup">Google</property>
    <property name="seekable">1</property>
    <property name="audio_index">0</property>
    <property name="video_index">-1</property>
    <property name="creation_time">2026-01-15T22:01:31</property>
    <property name="astream">0</property>
    <property name="shotcut:skipConvert">1</property>
    <property name="shotcut:hash">77dfc86dccf245cd8198d93fa84e5409</property>
    <property name="shotcut:caption">Charm - Anno Domini Beats.mp3</property>
    <property name="xml">was here</property>
  </chain>
  <chain id="chain8" out="00:02:16.567">
    <property name="length">00:02:16.600</property>
    <property name="eof">pause</property>
    <property name="resource">Charm - Anno Domini Beats.mp3</property>
    <property name="mlt_service">avformat-novalidate</property>
    <property name="meta.media.nb_streams">1</property>
    <property name="meta.media.0.stream.type">audio</property>
    <property name="meta.media.0.codec.sample_fmt">fltp</property>
    <property name="meta.media.0.codec.sample_rate">44100</property>
    <property name="meta.media.0.codec.channels">2</property>
    <property name="meta.media.0.codec.layout">stereo</property>
    <property name="meta.media.0.codec.name">mp3float</property>
    <property name="meta.media.0.codec.long_name">MP3 (MPEG audio layer 3)</property>
    <property name="meta.media.0.codec.bit_rate">320000</property>
    <property name="meta.attr.0.stream.encoder.markup">Lavf</property>
    <property name="meta.attr.encoder.markup">Google</property>
    <property name="seekable">1</property>
    <property name="audio_index">0</property>
    <property name="video_index">-1</property>
    <property name="creation_time">2026-01-15T22:01:31</property>
    <property name="astream">0</property>
    <property name="shotcut:skipConvert">1</property>
    <property name="shotcut:hash">77dfc86dccf245cd8198d93fa84e5409</property>
    <property name="shotcut:caption">Charm - Anno Domini Beats.mp3</property>
    <property name="xml">was here</property>
  </chain>
  <chain id="chain9" out="00:02:16.567">
    <property name="length">00:02:16.600</property>
    <property name="eof">pause</property>
    <property name="resource">Charm - Anno Domini Beats.mp3</property>
    <property name="mlt_service">avformat-novalidate</property>
    <property name="meta.media.nb_streams">1</property>
    <property name="meta.media.0.stream.type">audio</property>
    <property name="meta.media.0.codec.sample_fmt">fltp</property>
    <property name="meta.media.0.codec.sample_rate">44100</property>
    <property name="meta.media.0.codec.channels">2</property>
    <property name="meta.media.0.codec.layout">stereo</property>
    <property name="meta.media.0.codec.name">mp3float</property>
    <property name="meta.media.0.codec.long_name">MP3 (MPEG audio layer 3)</property>
    <property name="meta.media.0.codec.bit_rate">320000</property>
    <property name="meta.attr.0.stream.encoder.markup">Lavf</property>
    <property name="meta.attr.encoder.markup">Google</property>
    <property name="seekable">1</property>
    <property name="audio_index">0</property>
    <property name="video_index">-1</property>
    <property name="creation_time">2026-01-15T22:01:31</property>
    <property name="astream">0</property>
    <property name="shotcut:skipConvert">1</property>
    <property name="shotcut:hash">77dfc86dccf245cd8198d93fa84e5409</property>
    <property name="shotcut:caption">Charm - Anno Domini Beats.mp3</property>
    <property name="xml">was here</property>
  </chain>
  <chain id="chain12" out="00:02:16.567">
    <property name="length">00:02:16.600</property>
    <property name="eof">pause</property>
    <property name="resource">Charm - Anno Domini Beats.mp3</property>
    <property name="mlt_service">avformat-novalidate</property>
    <property name="meta.media.nb_streams">1</property>
    <property name="meta.media.0.stream.type">audio</property>
    <property name="meta.media.0.codec.sample_fmt">fltp</property>
    <property name="meta.media.0.codec.sample_rate">44100</property>
    <property name="meta.media.0.codec.channels">2</property>
    <property name="meta.media.0.codec.layout">stereo</property>
    <property name="meta.media.0.codec.name">mp3float</property>
    <property name="meta.media.0.codec.long_name">MP3 (MPEG audio layer 3)</property>
    <property name="meta.media.0.codec.bit_rate">320000</property>
    <property name="meta.attr.0.stream.encoder.markup">Lavf</property>
    <property name="meta.attr.encoder.markup">Google</property>
    <property name="seekable">1</property>
    <property name="audio_index">0</property>
    <property name="video_index">-1</property>
    <property name="creation_time">2026-01-15T22:01:31</property>
    <property name="astream">0</property>
    <property name="shotcut:skipConvert">1</property>
    <property name="shotcut:hash">77dfc86dccf245cd8198d93fa84e5409</property>
    <property name="shotcut:caption">Charm - Anno Domini Beats.mp3</property>
    <property name="xml">was here</property>
  </chain>
  <playlist id="playlist5">
    <property name="shotcut:audio">1</property>
    <property name="shotcut:name">A1</property>
    <property name="shotcut:lock">0</property>
    <entry producer="chain7" in="00:00:07.433" out="00:00:22.067"/>
    <entry producer="chain8" in="00:00:22.100" out="00:01:50.700"/>
    <entry producer="chain9" in="00:00:22.100" out="00:01:42.433"/>
    <entry producer="chain12" in="00:02:12.000" out="00:02:16.267"/>
  </playlist>
  <producer id="producer24" in="00:00:00.000" out="00:00:09.967">
    <property name="length">00:00:10.000</property>
    <property name="eof">loop</property>
    <property name="resource">anim-touchdisplay.rawr</property>
    <property name="background">#00000000</property>
    <property name="aspect_ratio">1</property>
    <property name="progressive">1</property>
    <property name="seekable">1</property>
    <property name="meta.media.width">1920</property>
    <property name="meta.media.height">1080</property>
    <property name="meta.media.sample_aspect_num">1</property>
    <property name="meta.media.sample_aspect_den">1</property>
    <property name="meta.media.frame_rate">30</property>
    <property name="first_frame">0</property>
    <property name="mlt_service">glaxnimate</property>
    <property name="creation_time">2026-01-16T07:11:53</property>
    <property name="shotcut:skipConvert">1</property>
    <property name="shotcut:hash">89a8043884407f493d00235efe581cd5</property>
    <property name="shotcut:caption">anim-touchdisplay.rawr</property>
    <property name="xml">was here</property>
  </producer>
  <producer id="producer25" in="00:00:00.000" out="00:00:09.967">
    <property name="length">00:00:10.000</property>
    <property name="eof">loop</property>
    <property name="resource">anim-dashboardmessages.rawr</property>
    <property name="background">#00000000</property>
    <property name="aspect_ratio">1</property>
    <property name="progressive">1</property>
    <property name="seekable">1</property>
    <property name="meta.media.width">1920</property>
    <property name="meta.media.height">1080</property>
    <property name="meta.media.sample_aspect_num">1</property>
    <property name="meta.media.sample_aspect_den">1</property>
    <property name="meta.media.frame_rate">30</property>
    <property name="first_frame">0</property>
    <property name="mlt_service">glaxnimate</property>
    <property name="creation_time">2026-01-16T08:17:02</property>
    <property name="shotcut:skipConvert">1</property>
    <property name="shotcut:hash">d4874389de77ba8c62385662341a75ff</property>
    <property name="shotcut:caption">anim-dashboardmessages.rawr</property>
    <property name="xml">was here</property>
  </producer>
  <producer id="producer26" in="00:00:00.000" out="00:00:09.967">
    <property name="length">00:00:10.000</property>
    <property name="eof">loop</property>
    <property name="resource">anim-dashboardbetriebszeit.rawr</property>
    <property name="background">#00000000</property>
    <property name="aspect_ratio">1</property>
    <property name="progressive">1</property>
    <property name="seekable">1</property>
    <property name="meta.media.width">1920</property>
    <property name="meta.media.height">1080</property>
    <property name="meta.media.sample_aspect_num">1</property>
    <property name="meta.media.sample_aspect_den">1</property>
    <property name="meta.media.frame_rate">30</property>
    <property name="first_frame">0</property>
    <property name="mlt_service">glaxnimate</property>
    <property name="creation_time">2026-01-16T13:31:02</property>
    <property name="shotcut:skipConvert">1</property>
    <property name="shotcut:hash">924abdb5357373ef0e1649489f74318c</property>
    <property name="shotcut:caption">anim-dashboardbetriebszeit.rawr</property>
    <property name="xml">was here</property>
  </producer>
  <producer id="producer27" in="00:00:00.000" out="00:00:09.967">
    <property name="length">00:00:10.000</property>
    <property name="eof">loop</property>
    <property name="resource">anim-rfidscanner.rawr</property>
    <property name="background">#00000000</property>
    <property name="aspect_ratio">1</property>
    <property name="progressive">1</property>
    <property name="seekable">1</property>
    <property name="meta.media.width">1920</property>
    <property name="meta.media.height">1080</property>
    <property name="meta.media.sample_aspect_num">1</property>
    <property name="meta.media.sample_aspect_den">1</property>
    <property name="meta.media.frame_rate">30</property>
    <property name="first_frame">0</property>
    <property name="mlt_service">glaxnimate</property>
    <property name="creation_time">2026-01-16T07:11:53</property>
    <property name="shotcut:skipConvert">1</property>
    <property name="shotcut:hash">89a8043884407f493d00235efe581cd5</property>
    <property name="shotcut:caption">anim-rfidscanner.rawr</property>
    <property name="xml">was here</property>
  </producer>
  <producer id="producer28" in="00:00:00.000" out="00:00:02.367">
    <property name="length">00:00:02.400</property>
    <property name="eof">loop</property>
    <property name="resource">anim-dorfidscan.rawr</property>
    <property name="background">#00000000</property>
    <property name="aspect_ratio">1</property>
    <property name="progressive">1</property>
    <property name="seekable">1</property>
    <property name="meta.media.width">1920</property>
    <property name="meta.media.height">1080</property>
    <property name="meta.media.sample_aspect_num">1</property>
    <property name="meta.media.sample_aspect_den">1</property>
    <property name="meta.media.frame_rate">30</property>
    <property name="first_frame">0</property>
    <property name="mlt_service">glaxnimate</property>
    <property name="creation_time">2026-01-16T17:00:53</property>
    <property name="shotcut:skipConvert">1</property>
    <property name="shotcut:hash">cef4c9c83eda6dcc9ac67de3646bf586</property>
    <property name="shotcut:caption">anim-dorfidscan.rawr</property>
    <property name="xml">was here</property>
  </producer>
  <producer id="producer29" in="00:00:00.000" out="00:00:00.967">
    <property name="length">00:00:01.000</property>
    <property name="eof">loop</property>
    <property name="resource">anim-doflugbuchtouch.rawr</property>
    <property name="background">#00000000</property>
    <property name="aspect_ratio">1</property>
    <property name="progressive">1</property>
    <property name="seekable">1</property>
    <property name="meta.media.width">1920</property>
    <property name="meta.media.height">1080</property>
    <property name="meta.media.sample_aspect_num">1</property>
    <property name="meta.media.sample_aspect_den">1</property>
    <property name="meta.media.frame_rate">30</property>
    <property name="first_frame">0</property>
    <property name="mlt_service">glaxnimate</property>
    <property name="creation_time">2026-01-17T09:10:51</property>
    <property name="shotcut:skipConvert">1</property>
    <property name="shotcut:hash">0f05b56c9486b774f7ab7c1ede885ec2</property>
    <property name="shotcut:caption">anim-doflugbuchtouch.rawr</property>
    <property name="xml">was here</property>
  </producer>
  <producer id="producer30" in="00:00:00.000" out="00:00:09.967">
    <property name="length">00:00:10.000</property>
    <property name="eof">loop</property>
    <property name="resource">anim-flugbuchliste.rawr</property>
    <property name="background">#00000000</property>
    <property name="aspect_ratio">1</property>
    <property name="progressive">1</property>
    <property name="seekable">1</property>
    <property name="meta.media.width">1920</property>
    <property name="meta.media.height">1080</property>
    <property name="meta.media.sample_aspect_num">1</property>
    <property name="meta.media.sample_aspect_den">1</property>
    <property name="meta.media.frame_rate">30</property>
    <property name="first_frame">0</property>
    <property name="mlt_service">glaxnimate</property>
    <property name="creation_time">2026-01-16T20:44:24</property>
    <property name="shotcut:skipConvert">1</property>
    <property name="shotcut:hash">6c2fed6902e758e47ce67afad1bb47c4</property>
    <property name="shotcut:caption">anim-flugbuchliste.rawr</property>
    <property name="xml">was here</property>
  </producer>
  <producer id="producer31" in="00:00:00.000" out="00:00:00.967">
    <property name="length">00:00:01.000</property>
    <property name="eof">loop</property>
    <property name="resource">anim-dozuruecktouch.rawr</property>
    <property name="background">#00000000</property>
    <property name="aspect_ratio">1</property>
    <property name="progressive">1</property>
    <property name="seekable">1</property>
    <property name="meta.media.width">1920</property>
    <property name="meta.media.height">1080</property>
    <property name="meta.media.sample_aspect_num">1</property>
    <property name="meta.media.sample_aspect_den">1</property>
    <property name="meta.media.frame_rate">30</property>
    <property name="first_frame">0</property>
    <property name="mlt_service">glaxnimate</property>
    <property name="creation_time">2026-01-17T09:10:51</property>
    <property name="shotcut:skipConvert">1</property>
    <property name="shotcut:hash">0f05b56c9486b774f7ab7c1ede885ec2</property>
    <property name="shotcut:caption">anim-dozuruecktouch.rawr</property>
    <property name="xml">was here</property>
  </producer>
  <producer id="producer32" in="00:00:00.000" out="00:00:09.967">
    <property name="length">00:00:10.000</property>
    <property name="eof">loop</property>
    <property name="resource">anim-pilotinfo-messages.rawr</property>
    <property name="background">#00000000</property>
    <property name="aspect_ratio">1</property>
    <property name="progressive">1</property>
    <property name="seekable">1</property>
    <property name="meta.media.width">1920</property>
    <property name="meta.media.height">1080</property>
    <property name="meta.media.sample_aspect_num">1</property>
    <property name="meta.media.sample_aspect_den">1</property>
    <property name="meta.media.frame_rate">30</property>
    <property name="first_frame">0</property>
    <property name="mlt_service">glaxnimate</property>
    <property name="creation_time">2026-01-16T19:22:10</property>
    <property name="shotcut:skipConvert">1</property>
    <property name="shotcut:hash">5faa7b6080809f5664a4ac0a1acc40a0</property>
    <property name="shotcut:caption">anim-pilotinfo-messages.rawr</property>
    <property name="xml">was here</property>
  </producer>
  <producer id="producer33" in="00:00:00.000" out="00:00:09.967">
    <property name="length">00:00:10.000</property>
    <property name="eof">loop</property>
    <property name="resource">anim-pilotinfo-errors.rawr</property>
    <property name="background">#00000000</property>
    <property name="aspect_ratio">1</property>
    <property name="progressive">1</property>
    <property name="seekable">1</property>
    <property name="meta.media.width">1920</property>
    <property name="meta.media.height">1080</property>
    <property name="meta.media.sample_aspect_num">1</property>
    <property name="meta.media.sample_aspect_den">1</property>
    <property name="meta.media.frame_rate">30</property>
    <property name="first_frame">0</property>
    <property name="mlt_service">glaxnimate</property>
    <property name="creation_time">2026-01-16T20:31:46</property>
    <property name="shotcut:skipConvert">1</property>
    <property name="shotcut:hash">42f4f3130c81e862a2153ab062ab2795</property>
    <property name="shotcut:caption">anim-pilotinfo-errors.rawr</property>
    <property name="xml">was here</property>
  </producer>
  <producer id="producer34" in="00:00:00.000" out="00:00:09.967">
    <property name="length">00:00:10.000</property>
    <property name="eof">loop</property>
    <property name="resource">anim-pilotinfo-warnings.rawr</property>
    <property name="background">#00000000</property>
    <property name="aspect_ratio">1</property>
    <property name="progressive">1</property>
    <property name="seekable">1</property>
    <property name="meta.media.width">1920</property>
    <property name="meta.media.height">1080</property>
    <property name="meta.media.sample_aspect_num">1</property>
    <property name="meta.media.sample_aspect_den">1</property>
    <property name="meta.media.frame_rate">30</property>
    <property name="first_frame">0</property>
    <property name="mlt_service">glaxnimate</property>
    <property name="creation_time">2026-01-16T19:22:10</property>
    <property name="shotcut:skipConvert">1</property>
    <property name="shotcut:hash">5faa7b6080809f5664a4ac0a1acc40a0</property>
    <property name="shotcut:caption">anim-pilotinfo-warnings.rawr</property>
    <property name="xml">was here</property>
  </producer>
  <producer id="producer35" in="00:00:00.000" out="00:00:01.633">
    <property name="length">00:00:01.667</property>
    <property name="eof">loop</property>
    <property name="resource">anim-docheckintouch.rawr</property>
    <property name="background">#00000000</property>
    <property name="aspect_ratio">1</property>
    <property name="progressive">1</property>
    <property name="seekable">1</property>
    <property name="meta.media.width">1920</property>
    <property name="meta.media.height">1080</property>
    <property name="meta.media.sample_aspect_num">1</property>
    <property name="meta.media.sample_aspect_den">1</property>
    <property name="meta.media.frame_rate">30</property>
    <property name="first_frame">0</property>
    <property name="mlt_service">glaxnimate</property>
    <property name="creation_time">2026-01-16T21:37:23</property>
    <property name="shotcut:skipConvert">1</property>
    <property name="shotcut:hash">77926057b6f68a53a760bcb90398bc79</property>
    <property name="shotcut:caption">anim-docheckintouch.rawr</property>
    <property name="xml">was here</property>
  </producer>
  <producer id="producer36" in="00:00:00.000" out="00:00:09.967">
    <property name="length">00:00:10.000</property>
    <property name="eof">loop</property>
    <property name="resource">anim-dashcheckedin.rawr</property>
    <property name="background">#00000000</property>
    <property name="aspect_ratio">1</property>
    <property name="progressive">1</property>
    <property name="seekable">1</property>
    <property name="meta.media.width">1920</property>
    <property name="meta.media.height">1080</property>
    <property name="meta.media.sample_aspect_num">1</property>
    <property name="meta.media.sample_aspect_den">1</property>
    <property name="meta.media.frame_rate">30</property>
    <property name="first_frame">0</property>
    <property name="mlt_service">glaxnimate</property>
    <property name="creation_time">2026-01-17T13:15:16</property>
    <property name="shotcut:skipConvert">1</property>
    <property name="shotcut:hash">154be33bf565c0ad3a635ed572ec407d</property>
    <property name="shotcut:caption">anim-dashcheckedin.rawr</property>
    <property name="xml">was here</property>
  </producer>
  <producer id="producer21" in="00:00:00.000" out="00:00:06.633">
    <property name="length">00:00:06.667</property>
    <property name="eof">loop</property>
    <property name="resource">anim-clockfokus.rawr</property>
    <property name="background">#00000000</property>
    <property name="aspect_ratio">1</property>
    <property name="progressive">1</property>
    <property name="seekable">1</property>
    <property name="meta.media.width">1920</property>
    <property name="meta.media.height">1080</property>
    <property name="meta.media.sample_aspect_num">1</property>
    <property name="meta.media.sample_aspect_den">1</property>
    <property name="meta.media.frame_rate">30</property>
    <property name="first_frame">0</property>
    <property name="mlt_service">glaxnimate</property>
    <property name="creation_time">2026-01-19T17:58:56</property>
    <property name="shotcut:skipConvert">1</property>
    <property name="shotcut:hash">08985df349addf04705af796f691a4d3</property>
    <property name="shotcut:caption">anim-clockfokus.rawr</property>
    <property name="xml">was here</property>
  </producer>
  <producer id="producer38" in="00:00:00.000" out="00:00:02.367">
    <property name="length">00:00:02.400</property>
    <property name="eof">loop</property>
    <property name="resource">anim-dorfidscan.rawr</property>
    <property name="background">#00000000</property>
    <property name="aspect_ratio">1</property>
    <property name="progressive">1</property>
    <property name="seekable">1</property>
    <property name="meta.media.width">1920</property>
    <property name="meta.media.height">1080</property>
    <property name="meta.media.sample_aspect_num">1</property>
    <property name="meta.media.sample_aspect_den">1</property>
    <property name="meta.media.frame_rate">30</property>
    <property name="first_frame">0</property>
    <property name="mlt_service">glaxnimate</property>
    <property name="creation_time">2026-01-16T17:00:53</property>
    <property name="shotcut:skipConvert">1</property>
    <property name="shotcut:hash">cef4c9c83eda6dcc9ac67de3646bf586</property>
    <property name="shotcut:caption">anim-dorfidscan.rawr</property>
    <property name="xml">was here</property>
  </producer>
  <producer id="producer39" in="00:00:00.000" out="00:00:01.633">
    <property name="length">00:00:01.667</property>
    <property name="eof">loop</property>
    <property name="resource">anim-docheckintouch.rawr</property>
    <property name="background">#00000000</property>
    <property name="aspect_ratio">1</property>
    <property name="progressive">1</property>
    <property name="seekable">1</property>
    <property name="meta.media.width">1920</property>
    <property name="meta.media.height">1080</property>
    <property name="meta.media.sample_aspect_num">1</property>
    <property name="meta.media.sample_aspect_den">1</property>
    <property name="meta.media.frame_rate">30</property>
    <property name="first_frame">0</property>
    <property name="mlt_service">glaxnimate</property>
    <property name="creation_time">2026-01-16T21:37:23</property>
    <property name="shotcut:skipConvert">1</property>
    <property name="shotcut:hash">77926057b6f68a53a760bcb90398bc79</property>
    <property name="shotcut:caption">anim-docheckintouch.rawr</property>
    <property name="xml">was here</property>
  </producer>
  <producer id="producer40" in="00:00:00.000" out="00:00:09.967">
    <property name="length">00:00:10.000</property>
    <property name="eof">loop</property>
    <property name="resource">anim-protokoll.rawr</property>
    <property name="background">#00000000</property>
    <property name="aspect_ratio">1</property>
    <property name="progressive">1</property>
    <property name="seekable">1</property>
    <property name="meta.media.width">1920</property>
    <property name="meta.media.height">1080</property>
    <property name="meta.media.sample_aspect_num">1</property>
    <property name="meta.media.sample_aspect_den">1</property>
    <property name="meta.media.frame_rate">30</property>
    <property name="first_frame">0</property>
    <property name="mlt_service">glaxnimate</property>
    <property name="creation_time">2026-01-16T13:22:09</property>
    <property name="shotcut:skipConvert">1</property>
    <property name="shotcut:hash">9e949760278963dc45c902f2006b44c2</property>
    <property name="shotcut:caption">anim-protokoll.rawr</property>
    <property name="xml">was here</property>
  </producer>
  <producer id="producer41" in="00:00:00.000" out="00:00:00.967">
    <property name="length">00:00:01.000</property>
    <property name="eof">loop</property>
    <property name="resource">anim-doanzahlfluegetouch.rawr</property>
    <property name="background">#00000000</property>
    <property name="aspect_ratio">1</property>
    <property name="progressive">1</property>
    <property name="seekable">1</property>
    <property name="meta.media.width">1920</property>
    <property name="meta.media.height">1080</property>
    <property name="meta.media.sample_aspect_num">1</property>
    <property name="meta.media.sample_aspect_den">1</property>
    <property name="meta.media.frame_rate">30</property>
    <property name="first_frame">0</property>
    <property name="mlt_service">glaxnimate</property>
    <property name="creation_time">2026-01-17T09:34:34</property>
    <property name="shotcut:skipConvert">1</property>
    <property name="shotcut:hash">4b75f9653894fc95ab2954f2f64be0f7</property>
    <property name="shotcut:caption">anim-doanzahlfluegetouch.rawr</property>
    <property name="xml">was here</property>
  </producer>
  <producer id="producer42" in="00:00:00.000" out="00:00:01.167">
    <property name="length">00:00:01.200</property>
    <property name="eof">loop</property>
    <property name="resource">anim-docheckouttouch.rawr</property>
    <property name="background">#00000000</property>
    <property name="aspect_ratio">1</property>
    <property name="progressive">1</property>
    <property name="seekable">1</property>
    <property name="meta.media.width">1920</property>
    <property name="meta.media.height">1080</property>
    <property name="meta.media.sample_aspect_num">1</property>
    <property name="meta.media.sample_aspect_den">1</property>
    <property name="meta.media.frame_rate">30</property>
    <property name="first_frame">0</property>
    <property name="mlt_service">glaxnimate</property>
    <property name="creation_time">2026-01-17T09:10:51</property>
    <property name="shotcut:skipConvert">1</property>
    <property name="shotcut:hash">0f05b56c9486b774f7ab7c1ede885ec2</property>
    <property name="shotcut:caption">anim-docheckouttouch.rawr</property>
    <property name="xml">was here</property>
  </producer>
  <playlist id="playlist6">
    <property name="shotcut:video">1</property>
    <property name="shotcut:name">Infoboxen</property>
    <property name="shotcut:lock">0</property>
    <blank length="00:00:10.133"/>
    <entry producer="producer24" in="00:00:00.000" out="00:00:09.967"/>
    <blank length="00:00:02.000"/>
    <entry producer="producer25" in="00:00:00.000" out="00:00:09.967"/>
    <blank length="00:00:02.000"/>
    <entry producer="producer26" in="00:00:00.000" out="00:00:09.967"/>
    <blank length="00:00:02.000"/>
    <entry producer="producer27" in="00:00:00.000" out="00:00:09.967"/>
    <entry producer="producer28" in="00:00:00.000" out="00:00:02.367"/>
    <blank length="00:00:01.800"/>
    <entry producer="producer29" in="00:00:00.000" out="00:00:00.967"/>
    <blank length="00:00:04.500"/>
    <entry producer="producer30" in="00:00:00.000" out="00:00:09.967"/>
    <blank length="00:00:01.200"/>
    <entry producer="producer31" in="00:00:00.000" out="00:00:00.967"/>
    <blank length="00:00:06.300"/>
    <entry producer="producer32" in="00:00:00.000" out="00:00:09.967"/>
    <blank length="00:00:03.933"/>
    <entry producer="producer33" in="00:00:00.000" out="00:00:09.967"/>
    <blank length="00:00:03.600"/>
    <entry producer="producer34" in="00:00:00.000" out="00:00:09.967"/>
    <blank length="00:00:03.700"/>
    <entry producer="producer35" in="00:00:00.000" out="00:00:01.633"/>
    <blank length="00:00:03.600"/>
    <entry producer="producer36" in="00:00:00.000" out="00:00:09.967"/>
    <blank length="00:00:02.100"/>
    <entry producer="producer21" in="00:00:00.000" out="00:00:06.267"/>
    <entry producer="producer38" in="00:00:00.000" out="00:00:02.367"/>
    <blank length="00:00:01.433"/>
    <entry producer="producer39" in="00:00:00.000" out="00:00:01.633"/>
    <blank length="00:00:02.033"/>
    <entry producer="producer40" in="00:00:00.000" out="00:00:09.967"/>
    <blank length="00:00:00.967"/>
    <entry producer="producer41" in="00:00:00.000" out="00:00:00.967"/>
    <blank length="00:00:08.000"/>
    <entry producer="producer42" in="00:00:00.000" out="00:00:01.167"/>
  </playlist>
  <tractor id="tractor6" title="Shotcut version 26.1.6" in="00:00:00.000" out="00:03:08.800">
    <property name="shotcut">1</property>
    <property name="shotcut:projectAudioChannels">2</property>
    <property name="shotcut:projectFolder">1</property>
    <property name="shotcut:processingMode">Native8Cpu</property>
    <property name="shotcut:trackHeaderWidth">186</property>
    <property name="shotcut:trackHeight">10</property>
    <property name="shotcut:scaleFactor">2.28393</property>
    <property name="shotcut:skipConvert">0</property>
    <track producer="background"/>
    <track producer="playlist0"/>
    <track producer="playlist1"/>
    <track producer="playlist2"/>
    <track producer="playlist4"/>
    <track producer="playlist5" hide="video"/>
    <track producer="playlist6"/>
    <transition id="transition12">
      <property name="a_track">0</property>
      <property name="b_track">1</property>
      <property name="mlt_service">mix</property>
      <property name="always_active">1</property>
      <property name="sum">1</property>
    </transition>
    <transition id="transition13">
      <property name="a_track">0</property>
      <property name="b_track">1</property>
      <property name="compositing">0</property>
      <property name="distort">0</property>
      <property name="rotate_center">0</property>
      <property name="mlt_service">qtblend</property>
      <property name="disable">1</property>
    </transition>
    <transition id="transition14">
      <property name="a_track">0</property>
      <property name="b_track">2</property>
      <property name="mlt_service">mix</property>
      <property name="always_active">1</property>
      <property name="sum">1</property>
    </transition>
    <transition id="transition15">
      <property name="a_track">1</property>
      <property name="b_track">2</property>
      <property name="compositing">0</property>
      <property name="distort">0</property>
      <property name="rotate_center">0</property>
      <property name="mlt_service">qtblend</property>
      <property name="1">normal</property>
    </transition>
    <transition id="transition16">
      <property name="a_track">0</property>
      <property name="b_track">3</property>
      <property name="mlt_service">mix</property>
      <property name="always_active">1</property>
      <property name="sum">1</property>
    </transition>
    <transition id="transition17">
      <property name="a_track">1</property>
      <property name="b_track">3</property>
      <property name="compositing">0</property>
      <property name="distort">0</property>
      <property name="rotate_center">0</property>
      <property name="mlt_service">qtblend</property>
      <property name="1">normal</property>
    </transition>
    <transition id="transition18">
      <property name="a_track">0</property>
      <property name="b_track">4</property>
      <property name="mlt_service">mix</property>
      <property name="always_active">1</property>
      <property name="sum">1</property>
    </transition>
    <transition id="transition19">
      <property name="a_track">1</property>
      <property name="b_track">4</property>
      <property name="compositing">0</property>
      <property name="distort">0</property>
      <property name="rotate_center">0</property>
      <property name="mlt_service">qtblend</property>
      <property name="1">normal</property>
    </transition>
    <transition id="transition20">
      <property name="a_track">0</property>
      <property name="b_track">5</property>
      <property name="mlt_service">mix</property>
      <property name="always_active">1</property>
      <property name="sum">1</property>
    </transition>
    <transition id="transition21">
      <property name="a_track">0</property>
      <property name="b_track">6</property>
      <property name="mlt_service">mix</property>
      <property name="always_active">1</property>
      <property name="sum">1</property>
    </transition>
    <transition id="transition22">
      <property name="a_track">1</property>
      <property name="b_track">6</property>
      <property name="compositing">0</property>
      <property name="distort">0</property>
      <property name="rotate_center">0</property>
      <property name="mlt_service">qtblend</property>
      <property name="1">normal</property>
    </transition>
  </tractor>
</mlt>
