<?xml version="1.0" encoding="UTF-8" standalone="no"?>
<!-- Created with Inkscape (http://www.inkscape.org/) -->

<svg
   width="47.77232mm"
   height="30.979877mm"
   viewBox="0 0 47.77232 30.979877"
   version="1.1"
   id="svg1"
   xml:space="preserve"
   inkscape:version="1.3.2 (1:1.3.2+202311252150+091e20ef0f)"
   sodipodi:docname="icon_rfid_scann.svg"
   inkscape:export-filename="icon_rfid_scann.png"
   inkscape:export-xdpi="425.35092"
   inkscape:export-ydpi="425.35092"
   xmlns:inkscape="http://www.inkscape.org/namespaces/inkscape"
   xmlns:sodipodi="http://sodipodi.sourceforge.net/DTD/sodipodi-0.dtd"
   xmlns="http://www.w3.org/2000/svg"
   xmlns:svg="http://www.w3.org/2000/svg"><sodipodi:namedview
     id="namedview1"
     pagecolor="#ffffff"
     bordercolor="#000000"
     borderopacity="0.25"
     inkscape:showpageshadow="2"
     inkscape:pageopacity="0.0"
     inkscape:pagecheckerboard="0"
     inkscape:deskcolor="#d1d1d1"
     inkscape:document-units="mm"
     inkscape:zoom="3.5269865"
     inkscape:cx="177.91392"
     inkscape:cy="136.9441"
     inkscape:window-width="2560"
     inkscape:window-height="1412"
     inkscape:window-x="0"
     inkscape:window-y="0"
     inkscape:window-maximized="1"
     inkscape:current-layer="layer1" /><defs
     id="defs1" /><g
     inkscape:label="Ebene 1"
     inkscape:groupmode="layer"
     id="layer1"
     transform="translate(-53.185314,-85.944716)"><g
       id="g10"
       transform="matrix(1,0,0,-1,-13.755174,229.17096)"
       style="fill:none;stroke:#ffff00;stroke-width:0.4;stroke-dasharray:none;stroke-opacity:1;stroke-linecap:round"
       inkscape:export-filename="../../simple_time_punch/assets/images/rfid_icon_white.png"
       inkscape:export-xdpi="425.35092"
       inkscape:export-ydpi="425.35092"><path
         style="fill:none;stroke:#ffff00;stroke-width:0.4;stroke-dasharray:none;stroke-opacity:1;stroke-linecap:round"
         d="m 74.784117,115.6106 c 2.839346,-1.41165 6.534221,-1.29723 9.686682,0"
         id="path10-4-3"
         sodipodi:nodetypes="cc" /><path
         style="fill:none;stroke:#ffff00;stroke-width:0.4;stroke-dasharray:none;stroke-opacity:1;stroke-linecap:round"
         d="m 73.598685,113.82499 c 3.565799,-1.77282 8.206015,-1.62914 12.165039,0"
         id="path10-1"
         sodipodi:nodetypes="cc" /><path
         style="fill:none;stroke:#ffff00;stroke-width:0.4;stroke-dasharray:none;stroke-opacity:1;stroke-linecap:round"
         d="m 75.831628,117.23051 c 2.349737,-1.16822 5.407479,-1.07354 8.016338,0"
         id="path10-4-0-8"
         sodipodi:nodetypes="cc" /></g><path
       style="fill:none;stroke:#ffff00;stroke-width:0.4;stroke-dasharray:none;stroke-opacity:1;stroke-linecap:round"
       d="m 61.242697,89.308951 c 2.839346,-1.411649 6.534221,-1.297238 9.686682,0"
       id="path10-4"
       sodipodi:nodetypes="cc" /><path
       style="fill:none;stroke:#ffff00;stroke-width:0.4;stroke-linecap:round;stroke-dasharray:none;stroke-opacity:1"
       d="m 83.554995,98.374142 v -3.021943 c 0,0 0.011,-2.378657 -2.175563,-2.378657 H 55.631169 c 0,0 -2.14585,0.0018 -2.14585,2.295412 V 106.9541 c 0,0 -0.0019,2.28183 2.038623,2.28183 1.549902,0.002 25.978347,0 25.978347,0 0,0 2.052706,0.0215 2.052706,-1.82736 0,0 0,-2.78512 0,-4.17768"
       id="path1"
       sodipodi:nodetypes="ccscccccsc" /><path
       style="fill:none;stroke:#ffff00;stroke-width:0.4;stroke-linecap:round;stroke-dasharray:none;stroke-opacity:1"
       d="M 100.72057,90.501784 C 94.96568,88.812077 89.098886,87.719245 83.073383,88.39378 c -3.42858,0.552721 -5.801245,4.549374 -5.801245,4.549374"
       id="path2"
       sodipodi:nodetypes="csc" /><path
       style="fill:none;stroke:#ffff00;stroke-width:0.4;stroke-linecap:round;stroke-dasharray:none;stroke-opacity:1"
       d="m 86.741753,95.851857 c 0,0 -1.446404,1.951765 -2.486537,2.32717 -2.966158,1.070548 -7.337243,1.763559 -7.851456,3.764223 -0.815311,3.17216 2.725122,2.78424 3.268767,2.66686 6.951435,-1.50098 2.932476,-3.62528 13.258391,-3.34271 4.727869,0.12939 7.178562,-1.594158 7.859152,-2.052445"
       id="path3"
       sodipodi:nodetypes="cssssc" /><path
       style="fill:none;stroke:#ffff00;stroke-width:0.4;stroke-dasharray:none;stroke-opacity:1;stroke-linecap:round"
       d="m 78.259484,100.18069 c 1.781217,1.05841 1.784884,2.34359 1.426083,4.37494"
       id="path4"
       sodipodi:nodetypes="cc" /><path
       style="fill:none;stroke:#ffff00;stroke-width:0.4;stroke-dasharray:none;stroke-opacity:1;stroke-linecap:round"
       d="m 83.562623,105.51932 c 0,0 0.708731,1.22893 1.8918,1.24855 0.788516,0.0131 1.837348,-0.18644 0.82235,-2.66277 -0.699085,-1.70559 -1.026587,-1.89658 -1.026587,-1.89658"
       id="path5"
       sodipodi:nodetypes="cssc" /><path
       style="fill:none;stroke:#ffff00;stroke-width:0.4;stroke-dasharray:none;stroke-opacity:1;stroke-linecap:round"
       d="m 85.389497,102.32924 c 0.217674,0.40827 2.738237,4.24367 4.364654,3.12076 1.229536,-0.8489 -1.008609,-2.91015 -1.879259,-3.83576"
       id="path6"
       sodipodi:nodetypes="csc" /><path
       style="fill:none;stroke:#ffff00;stroke-width:0.4;stroke-dasharray:none;stroke-opacity:1;stroke-linecap:round"
       d="m 89.294905,103.14314 c 1.681201,1.11515 2.897525,0.44719 2.443193,-1.63545"
       id="path7"
       sodipodi:nodetypes="cc" /><path
       style="fill:none;stroke:#ffff00;stroke-width:0.4;stroke-dasharray:none;stroke-opacity:1;stroke-linecap:round"
       d="m 60.057265,87.52334 c 3.565799,-1.772822 8.206015,-1.629139 12.165039,0"
       id="path10"
       sodipodi:nodetypes="cc" /><path
       style="fill:none;stroke:#ffff00;stroke-width:0.4;stroke-dasharray:none;stroke-opacity:1;stroke-linecap:round"
       d="m 62.290208,90.928862 c 2.349737,-1.168228 5.407479,-1.073546 8.016338,0"
       id="path10-4-0"
       sodipodi:nodetypes="cc" /></g></svg>
