<?xml version="1.0" encoding="UTF-8" standalone="no"?>
<!-- Created with Inkscape (http://www.inkscape.org/) -->

<svg
   width="62.19556mm"
   height="62.19556mm"
   viewBox="0 0 62.19556 62.19556"
   version="1.1"
   id="svg1"
   inkscape:version="1.3.2 (1:1.3.2+202311252150+091e20ef0f)"
   sodipodi:docname="Logo.svg"
   inkscape:export-filename="../../assets/images/fml_logo.png"
   inkscape:export-xdpi="102.09732"
   inkscape:export-ydpi="102.09732"
   xmlns:inkscape="http://www.inkscape.org/namespaces/inkscape"
   xmlns:sodipodi="http://sodipodi.sourceforge.net/DTD/sodipodi-0.dtd"
   xmlns:xlink="http://www.w3.org/1999/xlink"
   xmlns="http://www.w3.org/2000/svg"
   xmlns:svg="http://www.w3.org/2000/svg">
  <sodipodi:namedview
     id="namedview1"
     pagecolor="#ffffff"
     bordercolor="#000000"
     borderopacity="0.25"
     inkscape:showpageshadow="2"
     inkscape:pageopacity="0.0"
     inkscape:pagecheckerboard="0"
     inkscape:deskcolor="#d1d1d1"
     inkscape:document-units="mm"
     inkscape:zoom="1.6900629"
     inkscape:cx="-38.460107"
     inkscape:cy="22.48437"
     inkscape:window-width="2560"
     inkscape:window-height="1368"
     inkscape:window-x="2560"
     inkscape:window-y="0"
     inkscape:window-maximized="1"
     inkscape:current-layer="layer1"
     showguides="true"
     showgrid="false" />
  <defs
     id="defs1">
    <inkscape:path-effect
       effect="spiro"
       id="path-effect16"
       is_visible="true"
       lpeversion="1" />
    <inkscape:path-effect
       effect="spiro"
       id="path-effect15"
       is_visible="true"
       lpeversion="1" />
    <inkscape:path-effect
       effect="spiro"
       id="path-effect14"
       is_visible="true"
       lpeversion="1" />
    <inkscape:path-effect
       effect="spiro"
       id="path-effect13"
       is_visible="true"
       lpeversion="1" />
    <linearGradient
       id="linearGradient2"
       inkscape:collect="always">
      <stop
         style="stop-color:#000000;stop-opacity:1;"
         offset="0"
         id="stop2" />
      <stop
         style="stop-color:#000000;stop-opacity:0;"
         offset="1"
         id="stop3" />
    </linearGradient>
    <rect
       x="279.56082"
       y="336.90665"
       width="154.09039"
       height="50.698341"
       id="rect2" />
    <linearGradient
       inkscape:collect="always"
       xlink:href="#linearGradient2"
       id="linearGradient3"
       x1="275.96732"
       y1="358.37045"
       x2="379.21225"
       y2="358.37045"
       gradientUnits="userSpaceOnUse" />
    <inkscape:path-effect
       effect="spiro"
       id="path-effect16-7"
       is_visible="true"
       lpeversion="1" />
    <inkscape:path-effect
       effect="spiro"
       id="path-effect16-1"
       is_visible="true"
       lpeversion="1" />
  </defs>
  <g
     inkscape:label="Ebene 1"
     inkscape:groupmode="layer"
     id="layer1"
     transform="translate(-62.127163,-47.138805)">
    <rect
       style="fill:#4199b9;fill-opacity:1;stroke-width:0.4;stroke-linecap:round"
       id="rect1"
       width="62.19556"
       height="62.19556"
       x="62.127163"
       y="47.138805"
       rx="9.6647263"
       ry="9.6647263" />
    <path
       style="font-weight:bold;font-size:37.2667px;font-family:'LT Saeada';-inkscape-font-specification:'LT Saeada Bold';text-align:center;text-anchor:middle;white-space:pre;fill:#ffffff;stroke-width:1.51181;stroke-linecap:round"
       d="m 320.21455,372.46401 c -0.0745,0.59626 0.37267,1.04346 0.93167,1.04346 h 4.32293 c 0.55901,0 1.08074,-0.4472 1.11801,-1.04346 l 0.96893,-13.15515 4.62107,12.81975 c 0.4472,1.19253 1.0062,1.52793 2.53414,1.52793 1.60246,0 2.1242,-0.3354 2.53413,-1.52793 l 4.62107,-12.81975 0.96894,13.15515 c 0.0373,0.59626 0.559,1.04346 1.118,1.04346 h 4.3602 c 0.559,0 0.96894,-0.4472 0.8944,-1.04346 l -1.86333,-21.61469 c -0.18634,-1.9006 -1.71427,-3.42854 -3.76394,-3.42854 -2.04967,0 -3.31674,1.30434 -3.87574,2.86954 l -4.99373,13.15514 -4.99374,-13.15514 c -0.559,-1.5652 -1.82607,-2.86954 -3.87574,-2.86954 -2.04967,0 -3.5776,1.52794 -3.72667,3.42854 z m 31.4531,0 c 0,0.59626 0.48446,1.04346 1.04346,1.04346 h 4.80741 c 0.559,0 1.04347,-0.4472 1.04347,-1.04346 v -8.60861 h 8.34774 c 1.82606,0 2.83227,-1.19254 2.83227,-2.72047 0,-1.5652 -1.00621,-2.6832 -2.83227,-2.6832 h -8.34774 v -4.77014 h 9.24214 c 1.677,0 3.05587,-1.37887 3.05587,-3.09314 0,-1.7888 -1.37887,-3.16767 -3.05587,-3.16767 h -13.26695 c -1.5652,0 -2.86953,1.26707 -2.86953,2.86954 z m 21.87555,-1.82607 c 0,1.60247 1.30433,2.86953 2.86953,2.86953 h 13.26695 c 1.677,0 3.05587,-1.37886 3.05587,-3.16767 0,-1.71426 -1.37887,-3.09313 -3.05587,-3.09313 h -9.24214 v -16.39735 c 0,-1.9006 -1.52794,-3.42854 -3.42854,-3.42854 -1.93787,0 -3.4658,1.52794 -3.4658,3.42854 z"
       id="text1"
       inkscape:transform-center-x="2.0161971"
       inkscape:transform-center-y="2.329012"
       transform="matrix(0.47408031,0,0,0.47408031,-74.936959,-75.020706)"
       aria-label="MFL" />
    <g
       id="g2">
      <path
         id="rect3-6"
         style="opacity:0.6;fill:#ffffff;fill-opacity:1;stroke:#ffffff;stroke-width:0.851772;stroke-linecap:round;stroke-dasharray:none;stroke-opacity:1"
         d="m 72.337121,82.835072 c -2.788692,2.96e-4 -3.512322,-1.23288 -3.512322,-2.763286 0,-1.530405 0.723631,-2.761864 3.512322,-2.76164 l 45.763939,0.0037 c 0,0 -1.03495,1.260313 -0.98064,2.690165 0.0543,1.429852 1.03908,2.826214 1.03908,2.826214 z"
         sodipodi:nodetypes="sssczcs" />
      <path
         id="rect3"
         style="fill:none;stroke:#ffffff;stroke-width:1.2;stroke-linecap:round;stroke-dasharray:none"
         d="m 119.63591,84.701723 -47.955678,7.23e-4 c -2.958445,4.4e-5 -5.039215,-2.098873 -5.039215,-4.705102 0,-2.606228 2.08077,-4.703615 5.039215,-4.703659 l 47.955678,-7.23e-4"
         sodipodi:nodetypes="csssc" />
      <g
         id="g1"
         transform="matrix(1.1823515,0,0,1.1823515,-17.060035,-10.333656)">
        <g
           id="g7"
           transform="matrix(0.94408577,-0.23025922,0.23025922,0.94408577,-13.87829,8.3608763)">
          <circle
             style="fill:none;fill-opacity:1;stroke:#ffffff;stroke-width:1.20397;stroke-linecap:round;stroke-dasharray:none;stroke-opacity:1"
             id="path4"
             r="1.0295721"
             cy="90.21505"
             cx="103.9253" />
          <path
             style="fill:none;fill-opacity:1;stroke:#ffffff;stroke-width:1.204;stroke-linecap:round;stroke-dasharray:none;stroke-opacity:1"
             d="m 75.344543,84.045287 c 0,0 7.310695,1.002815 23.077468,2.456925 11.400379,1.051414 14.146829,-0.246713 14.003249,-3.927473 -0.14357,-3.68076 -2.68476,-0.431682 -7.46126,-5.039913 -0.76498,-0.738029 -1.57931,-1.563926 -2.49702,-1.750358 -4.812473,-0.977647 -6.843636,3.832571 -10.671305,4.778113 -3.252567,0.803476 -9.23348,0.588322 -11.412037,0.574964 -0.603561,-0.0037 -0.500009,-0.01988 -0.500009,-0.01988 0,0 -0.864684,-4.545399 -2.352954,-6.207851 -0.519115,-0.579871 -2.123216,-0.489587 -2.435691,-0.498096 0,0 -0.783815,7.588415 -0.704618,8.516484 0.0792,0.928069 0.954177,1.117089 0.954177,1.117089 z"
             id="path5"
             sodipodi:nodetypes="cszsssscsczcc" />
          <path
             style="fill:none;fill-opacity:1;stroke:#ffffff;stroke-width:0.963173;stroke-linecap:round;stroke-dasharray:none;stroke-opacity:1"
             d="m 102.6042,87.060419 0.79685,1.751468"
             id="path6"
             sodipodi:nodetypes="cc" />
          <path
             style="fill:none;fill-opacity:1;stroke:#ffffff;stroke-width:0.963173;stroke-linecap:round;stroke-dasharray:none;stroke-opacity:1"
             d="m 113.84047,78.47119 v 8.647919"
             id="path7" />
        </g>
        <g
           id="g15"
           transform="matrix(1.1597466,-0.15430132,0.15430132,1.1597466,-26.282062,8.4087697)">
          <path
             style="fill:none;fill-opacity:1;stroke:#ffffff;stroke-width:0.2;stroke-linecap:round;stroke-dasharray:none;stroke-opacity:1"
             d="M 88.697931,66.484645 86.93292,63.182967"
             id="path13"
             inkscape:path-effect="#path-effect14"
             inkscape:original-d="M 88.697931,66.484645 C 88.219033,64.697368 87.407775,64.955149 86.93292,63.182967"
             transform="translate(9.7371233,-10.844653)"
             sodipodi:nodetypes="cc" />
          <ellipse
             style="fill:none;fill-opacity:1;stroke:#ffffff;stroke-width:0.28495;stroke-linecap:round;stroke-dasharray:none;stroke-opacity:1"
             id="path14"
             cx="96.637093"
             cy="52.291058"
             rx="0.15132722"
             ry="0.18556376" />
        </g>
      </g>
    </g>
  </g>
</svg>
