<?xml version="1.0" encoding="UTF-8" standalone="no"?>
<!-- Created with Inkscape (http://www.inkscape.org/) -->

<svg
   width="40.000004mm"
   height="26.940136mm"
   viewBox="0 0 40.000003 26.940136"
   version="1.1"
   id="svg1"
   inkscape:version="1.4.1-rc (06eac75fbf, 2025-03-29)"
   sodipodi:docname="Logo_raw.svg"
   inkscape:export-filename="../../assets/images/mfl_logo_slim.png"
   inkscape:export-xdpi="102.09732"
   inkscape:export-ydpi="102.09732"
   xmlns:inkscape="http://www.inkscape.org/namespaces/inkscape"
   xmlns:sodipodi="http://sodipodi.sourceforge.net/DTD/sodipodi-0.dtd"
   xmlns:xlink="http://www.w3.org/1999/xlink"
   xmlns="http://www.w3.org/2000/svg"
   xmlns:svg="http://www.w3.org/2000/svg">
  <sodipodi:namedview
     id="namedview1"
     pagecolor="#ffffff"
     bordercolor="#000000"
     borderopacity="0.25"
     inkscape:showpageshadow="2"
     inkscape:pageopacity="0.0"
     inkscape:pagecheckerboard="0"
     inkscape:deskcolor="#d1d1d1"
     inkscape:document-units="mm"
     inkscape:zoom="4.1709879"
     inkscape:cx="62.095601"
     inkscape:cy="36.801833"
     inkscape:window-width="2560"
     inkscape:window-height="1368"
     inkscape:window-x="2560"
     inkscape:window-y="0"
     inkscape:window-maximized="1"
     inkscape:current-layer="layer1"
     showguides="true"
     showgrid="false" />
  <defs
     id="defs1">
    <inkscape:path-effect
       effect="spiro"
       id="path-effect12"
       is_visible="true"
       lpeversion="1" />
    <inkscape:path-effect
       effect="spiro"
       id="path-effect11"
       is_visible="true"
       lpeversion="1" />
    <inkscape:path-effect
       effect="spiro"
       id="path-effect8"
       is_visible="true"
       lpeversion="1" />
    <inkscape:path-effect
       effect="spiro"
       id="path-effect16"
       is_visible="true"
       lpeversion="1" />
    <inkscape:path-effect
       effect="spiro"
       id="path-effect15"
       is_visible="true"
       lpeversion="1" />
    <inkscape:path-effect
       effect="spiro"
       id="path-effect14"
       is_visible="true"
       lpeversion="1" />
    <inkscape:path-effect
       effect="spiro"
       id="path-effect13"
       is_visible="true"
       lpeversion="1" />
    <linearGradient
       id="linearGradient2"
       inkscape:collect="always">
      <stop
         style="stop-color:#000000;stop-opacity:1;"
         offset="0"
         id="stop2" />
      <stop
         style="stop-color:#000000;stop-opacity:0;"
         offset="1"
         id="stop3" />
    </linearGradient>
    <rect
       x="279.56082"
       y="336.90665"
       width="154.09039"
       height="50.698341"
       id="rect2" />
    <linearGradient
       inkscape:collect="always"
       xlink:href="#linearGradient2"
       id="linearGradient3"
       x1="275.96732"
       y1="358.37045"
       x2="379.21225"
       y2="358.37045"
       gradientUnits="userSpaceOnUse" />
    <inkscape:path-effect
       effect="spiro"
       id="path-effect16-7"
       is_visible="true"
       lpeversion="1" />
    <inkscape:path-effect
       effect="spiro"
       id="path-effect16-1"
       is_visible="true"
       lpeversion="1" />
    <inkscape:path-effect
       effect="spiro"
       id="path-effect12-5"
       is_visible="true"
       lpeversion="1" />
    <inkscape:path-effect
       effect="spiro"
       id="path-effect12-7"
       is_visible="true"
       lpeversion="1" />
  </defs>
  <g
     inkscape:label="Ebene 1"
     inkscape:groupmode="layer"
     id="layer1"
     transform="translate(-66.041016,-61.704154)"
     style="fill:none;fill-opacity:1;stroke:#000000;stroke-opacity:1">
    <path
       style="baseline-shift:baseline;display:inline;overflow:visible;opacity:0.6;vector-effect:none;fill:#000000;stroke:none;stroke-width:0.738071;stroke-linecap:round;enable-background:accumulate;stop-color:#000000;stop-opacity:1"
       d="m 70.688558,80.391409 c -1.075398,-8.7e-5 -1.814765,0.238716 -2.28485,0.681851 -0.470084,0.443134 -0.622747,1.056434 -0.622747,1.670751 0,0.614317 0.152713,1.228733 0.622747,1.672192 0.470035,0.44346 1.209387,0.681966 2.28485,0.681851 l 34.425542,-0.0029 -0.34885,-0.495892 c 0,0 -0.67434,-0.996742 -0.70924,-1.915814 -0.0341,-0.896979 0.65158,-1.774542 0.65158,-1.774542 l 0.42237,-0.514632 z m 0,0.629955 33.203112,0.0015 c -0.238,0.399548 -0.49188,0.954371 -0.46418,1.683724 0.0288,0.758694 0.30303,1.346707 0.53626,1.760127 l -33.275192,0.0029 c -0.98279,7.5e-5 -1.540811,-0.216378 -1.852386,-0.510337 -0.311574,-0.293958 -0.426697,-0.699991 -0.426697,-1.215222 0,-0.515232 0.115173,-0.920117 0.426697,-1.213781 0.311524,-0.293664 0.869531,-0.508945 1.852386,-0.508866 z"
       id="rect3-6" />
    <path
       style="baseline-shift:baseline;display:inline;overflow:visible;opacity:1;vector-effect:none;fill:#000000;stroke:none;stroke-width:0.738071;stroke-linecap:round;enable-background:accumulate;stop-color:#000000;stop-opacity:1"
       d="m 70.202757,78.775437 c -2.392842,3.5e-5 -4.161741,1.754508 -4.161741,3.913795 0,2.159288 1.76874,3.916717 4.161741,3.916679 h 1.741386 A 0.44284273,0.44284273 0 0 0 72.38814,86.161914 0.44284273,0.44284273 0 0 0 71.944143,85.71936 h -1.741386 c -1.974085,3.2e-5 -3.276633,-1.342251 -3.276633,-3.030128 0,-1.687876 1.302389,-3.028658 3.276633,-3.028686 h 35.395703 a 0.44284273,0.44284273 0 0 0 0.44256,-0.442555 0.44284273,0.44284273 0 0 0 -0.44256,-0.442554 z m 7.891019,6.943923 a 0.44284273,0.44284273 0 0 0 -0.442555,0.442554 0.44284273,0.44284273 0 0 0 0.442555,0.443997 l 27.504684,-0.0015 a 0.44284273,0.44284273 0 0 0 0.44256,-0.442555 0.44284273,0.44284273 0 0 0 -0.44256,-0.442554 z"
       id="rect3" />
    <g
       id="g7"
       transform="matrix(0.82386547,-0.20093791,0.20093791,0.82386547,-7.4044985,23.31526)"
       style="fill:none;fill-opacity:1;stroke:#000000;stroke-opacity:1">
      <path
         style="baseline-shift:baseline;display:inline;overflow:visible;opacity:1;vector-effect:none;fill:#000000;stroke:none;stroke-linecap:round;enable-background:accumulate;stop-color:#000000;stop-opacity:1"
         d="m 103.92578,88.583984 c -0.89395,0 -1.63281,0.736906 -1.63281,1.63086 0,0.893954 0.73886,1.630859 1.63281,1.630859 0.89396,0 1.63086,-0.736905 1.63086,-1.630859 0,-0.893954 -0.7369,-1.63086 -1.63086,-1.63086 z m 0,1.203125 c 0.24328,0 0.42774,0.184455 0.42774,0.427735 0,0.24328 -0.18446,0.427734 -0.42774,0.427734 -0.24328,0 -0.42773,-0.184454 -0.42773,-0.427734 0,-0.24328 0.18445,-0.427735 0.42773,-0.427735 z"
         id="path4" />
      <path
         style="baseline-shift:baseline;display:inline;overflow:visible;opacity:1;vector-effect:none;fill:#000000;stroke:none;stroke-linecap:round;enable-background:accumulate;stop-color:#000000;stop-opacity:1"
         d="m 74.552734,73.794922 -0.05664,0.554687 c 0,0 -0.196383,1.898845 -0.382813,3.916016 -0.09321,1.008586 -0.183262,2.048004 -0.246094,2.896484 -0.06283,0.848481 -0.109033,1.431319 -0.07617,1.816407 0.05527,0.647723 0.424147,1.108844 0.755859,1.345703 0.331712,0.236859 0.669922,0.308594 0.669922,0.308593 l 0.02344,0.0059 0.02344,0.0039 c 0,0 7.328484,1.004113 23.103515,2.458984 5.727157,0.528194 9.297037,0.494505 11.564457,-0.21289 1.13371,-0.353697 1.96381,-0.905989 2.4707,-1.666016 0.50689,-0.760026 0.66387,-1.675613 0.625,-2.671875 -0.0387,-0.992749 -0.25914,-1.691589 -0.76562,-2.125 -0.50648,-0.433411 -1.10133,-0.503643 -1.72461,-0.615234 -1.24656,-0.223183 -2.85532,-0.490992 -5.1543,-2.708985 -0.75711,-0.730434 -1.60733,-1.664594 -2.79687,-1.90625 -2.611203,-0.53046 -4.556862,0.546469 -6.187507,1.777344 -1.630644,1.230876 -3.040881,2.584142 -4.748046,3.00586 -3.061473,0.75627 -9.052237,0.5702 -11.263672,0.55664 -0.02037,-1.25e-4 -0.01048,1.72e-4 -0.0293,0 -0.06589,-0.324734 -0.179997,-0.948653 -0.515625,-2.070312 -0.411935,-1.376673 -0.975931,-2.965829 -1.863281,-3.957032 -0.475447,-0.531092 -1.124756,-0.603742 -1.683594,-0.660156 -0.558838,-0.05641 -1.113291,-0.0352 -1.183594,-0.03711 z m 1.085938,1.234375 c 0.184495,0.0017 0.316367,-0.0067 0.537109,0.01563 0.45111,0.04554 0.862582,0.216846 0.90625,0.265625 0.60092,0.671249 1.214947,2.18836 1.607422,3.5 0.392475,1.31164 0.603516,2.419922 0.603516,2.419922 l 0.0059,-0.0078 c 0.0027,0.03671 0.0058,0.08786 0.0059,0.08789 3.5e-5,1.03e-4 0.115143,0.203018 0.115235,0.203125 9.2e-5,1.07e-4 0.109219,0.09754 0.109375,0.09766 1.56e-4,1.11e-4 0.07595,0.04676 0.07617,0.04687 4.51e-4,2.29e-4 0.07141,0.03203 0.09375,0.03906 0.02234,0.007 0.03899,0.01061 0.05273,0.01367 0.05496,0.01226 0.07638,0.01333 0.101563,0.01563 0.100747,0.0092 0.219973,0.01179 0.527343,0.01367 2.145679,0.01316 8.114933,0.256932 11.558594,-0.59375 2.120504,-0.523824 3.640574,-2.046683 5.185547,-3.21289 1.544973,-1.166207 3.021384,-2.00578 5.222664,-1.558594 0.64587,0.131209 1.42636,0.848126 2.19922,1.59375 2.47751,2.390239 4.52524,2.802818 5.77929,3.027344 0.62703,0.112263 0.99271,0.207142 1.15235,0.34375 0.15963,0.136607 0.31264,0.410181 0.3457,1.257812 0.0329,0.844119 -0.0999,1.471302 -0.42383,1.957031 -0.32395,0.48573 -0.86617,0.884092 -1.82617,1.183594 -1.92,0.599006 -5.42443,0.687283 -11.097662,0.164063 C 82.74349,84.45135 75.486409,83.456355 75.462967,83.45314 c -0.0066,-0.0016 -0.0956,-0.02088 -0.216797,-0.107422 -0.125576,-0.08967 -0.231935,-0.188405 -0.25586,-0.46875 -0.0067,-0.07895 0.01627,-0.791586 0.07813,-1.626953 0.06186,-0.835367 0.151302,-1.86852 0.244141,-2.873047 0.159205,-1.722601 0.281909,-2.915426 0.326172,-3.347656 z"
         id="path5" />
      <path
         style="baseline-shift:baseline;display:inline;overflow:visible;opacity:1;vector-effect:none;fill:#000000;stroke:none;stroke-linecap:round;enable-background:accumulate;stop-color:#000000;stop-opacity:1"
         d="m 102.4043,86.621094 a 0.48158649,0.48158649 0 0 0 -0.23828,0.638672 l 0.79687,1.751953 a 0.48158649,0.48158649 0 0 0 0.63672,0.238281 0.48158649,0.48158649 0 0 0 0.24023,-0.636719 l -0.79687,-1.751953 a 0.48158649,0.48158649 0 0 0 -0.63867,-0.240234 z"
         id="path6" />
      <path
         style="baseline-shift:baseline;display:inline;overflow:visible;opacity:1;vector-effect:none;fill:#000000;stroke:none;stroke-linecap:round;enable-background:accumulate;stop-color:#000000;stop-opacity:1"
         d="m 113.83984,77.990234 a 0.48158649,0.48158649 0 0 0 -0.48046,0.480469 v 8.648438 a 0.48158649,0.48158649 0 0 0 0.48046,0.482421 0.48158649,0.48158649 0 0 0 0.48243,-0.482421 v -8.648438 a 0.48158649,0.48158649 0 0 0 -0.48243,-0.480469 z"
         id="path7" />
    </g>
    <g
       id="g8"
       transform="matrix(0.73663621,-0.04600202,0.04600202,0.73663621,13.659929,27.127099)"
       style="fill:none;fill-opacity:1;stroke:#000000;stroke-opacity:1">
      <path
         style="baseline-shift:baseline;display:inline;overflow:visible;opacity:1;vector-effect:none;fill:#000000;stroke:none;stroke-width:1.73269;stroke-linecap:round;enable-background:accumulate;stop-color:#000000;stop-opacity:1"
         d="m 95.985939,52.938472 c -0.424859,0.02272 -0.736663,0.394223 -0.691541,0.815898 0.04512,0.421676 0.432434,0.755794 0.857291,0.733074 0.424859,-0.02272 0.736661,-0.394224 0.691539,-0.8159 -0.04512,-0.421675 -0.432431,-0.755792 -0.857289,-0.733072 z m 0.07603,0.710507 c 0.03612,-0.0019 0.06328,0.01925 0.06772,0.06073 0.0045,0.04148 -0.0179,0.0653 -0.05404,0.06724 -0.03612,0.0019 -0.06329,-0.01925 -0.06772,-0.06073 -0.0045,-0.04148 0.0179,-0.0653 0.05403,-0.06724 z"
         id="path14" />
      <path
         style="baseline-shift:baseline;display:inline;overflow:visible;opacity:1;vector-effect:none;fill:#000000;stroke:none;stroke-linecap:round;enable-background:accumulate;stop-color:#000000;stop-opacity:1"
         d="m 93.095818,55.55975 c -0.07768,-0.03074 -0.308191,0.09855 -0.338006,0.176581 -0.03074,0.07768 -0.118864,0.563547 -0.04083,0.593362 0.607066,0.234427 1.035717,0.505285 1.544283,0.911297 0.95995,0.766372 1.585716,1.844305 1.972936,3.01002 0.02585,0.07878 0.355726,-0.137698 0.434473,-0.163638 0.07981,-0.02582 0.369752,-0.25998 0.342524,-0.339317 -0.405874,-1.221875 -1.172931,-2.400154 -2.179129,-3.203448 -0.532602,-0.425201 -1.100495,-0.739352 -1.736252,-0.984859 z"
         id="path8"
         transform="rotate(3.1421753,131.55783,115.09801)"
         sodipodi:nodetypes="cccscccscc" />
    </g>
    <g
       id="path10"
       style="opacity:1"
       transform="matrix(0.73807119,0,0,0.73807119,17.298045,16.225345)"
       inkscape:label="path10">
      <path
         style="baseline-shift:baseline;display:inline;overflow:visible;vector-effect:none;fill:#000000;stroke:none;stroke-linecap:round;enable-background:accumulate;stop-color:#000000;stop-opacity:1"
         d="m 81.757201,88.662367 c 0,0 -0.739915,0.106732 -0.739915,0.881794 v -2.6e-5 c 0,1.31183 0.110239,8.418541 0.110239,8.418541 l -2.976548,-2.446103 -2.862005,2.447443 c 0,0 0.0058,-8.122561 0.0058,-8.539863 0,-0.65533 0.553426,-0.762792 0.553426,-0.762792 z"
         id="path2" />
      <path
         style="baseline-shift:baseline;display:inline;overflow:visible;vector-effect:none;fill:#000000;stroke:none;stroke-linecap:round;enable-background:accumulate;stop-color:#000000;stop-opacity:1"
         d="m 75.841797,88.589844 -0.0078,0.002 c 0,0 -0.15465,0.02894 -0.30664,0.148437 -0.151991,0.119502 -0.302735,0.335914 -0.302735,0.683594 0,0.416643 -0.0059,8.541016 -0.0059,8.541016 l -0.002,0.154297 2.935547,-2.509766 3.048828,2.505859 -0.002,-0.154297 c 0,0 -0.111328,-7.108168 -0.111328,-8.416015 0,-0.364906 0.167186,-0.559798 0.33789,-0.673828 0.170705,-0.114031 0.341797,-0.138672 0.341797,-0.138672 l -0.0098,-0.140625 h -0.01172 z m 0.01563,0.142578 5.539062,0.002 c -0.02402,0.01328 -0.02447,0.0033 -0.04883,0.01953 -0.199253,0.133101 -0.402344,0.380859 -0.402344,0.791016 0,1.292306 0.105576,8.022329 0.109375,8.267578 l -2.904296,-2.388672 -2.791016,2.386719 c 2.02e-4,-0.28308 0.0059,-7.976309 0.0059,-8.386719 0,-0.30765 0.125278,-0.47225 0.25,-0.570312 0.122743,-0.09651 0.238418,-0.120342 0.242188,-0.121094 z"
         id="path3" />
    </g>
  </g>
</svg>
